<svg id="svg" version="1.1" xmlns="http://www.w3.org/2000/svg" xmlns:xlink="http://www.w3.org/1999/xlink" width="400" height="110.92436974789916" viewBox="0, 0, 400,110.92436974789916"><g id="svgg"><path id="path0" d="M138.406 0.792 C 138.566 1.935,139.276 4.666,139.565 5.250 C 139.701 5.525,139.892 5.938,139.989 6.167 C 140.173 6.599,140.204 6.653,141.156 8.167 C 146.301 16.350,160.431 18.310,169.565 12.107 C 170.401 11.539,170.399 11.539,171.490 12.393 C 176.510 16.326,181.324 17.583,188.475 16.830 C 195.741 16.065,202.224 10.808,203.730 4.460 C 203.904 3.727,204.454 3.500,206.440 3.338 C 209.381 3.098,212.455 2.378,214.833 1.369 C 215.246 1.195,215.902 0.916,216.292 0.750 C 218.123 -0.028,219.559 0.000,177.648 0.000 L 138.295 0.000 138.406 0.792 M356.567 0.375 C 356.625 0.581,356.787 1.275,356.926 1.917 C 357.231 3.322,357.806 4.985,358.111 5.346 C 358.233 5.491,358.333 5.673,358.333 5.751 C 358.333 6.661,361.636 10.068,363.636 11.222 C 367.348 13.363,374.036 14.257,377.569 13.085 C 377.943 12.960,378.587 12.771,379.000 12.663 C 379.970 12.409,381.988 11.439,383.220 10.634 C 384.228 9.976,384.944 9.826,385.103 10.241 C 385.241 10.602,388.230 12.546,389.730 13.251 C 391.921 14.282,393.155 14.520,396.792 14.617 L 400.000 14.702 400.000 7.351 L 400.000 0.000 378.231 0.000 L 356.461 0.000 356.567 0.375 M276.419 40.496 C 276.015 41.151,277.298 42.121,281.667 44.463 C 282.354 44.832,283.393 45.403,283.974 45.733 C 284.556 46.063,285.068 46.333,285.112 46.333 C 285.156 46.333,285.692 46.625,286.304 46.982 C 286.916 47.339,287.867 47.867,288.417 48.156 C 288.967 48.445,289.942 48.982,290.583 49.348 C 291.225 49.715,292.050 50.164,292.417 50.346 C 292.783 50.528,293.196 50.746,293.333 50.831 C 293.850 51.150,297.500 53.167,297.561 53.167 C 297.596 53.167,298.419 53.617,299.390 54.167 C 300.360 54.717,301.189 55.167,301.231 55.167 C 301.303 55.167,304.617 56.991,305.167 57.333 C 305.304 57.419,305.867 57.724,306.417 58.012 C 306.967 58.300,307.917 58.828,308.529 59.185 C 309.141 59.541,309.679 59.833,309.725 59.833 C 309.808 59.833,313.188 61.697,313.667 62.006 C 313.804 62.095,314.077 62.237,314.273 62.322 C 314.469 62.408,315.431 62.933,316.410 63.489 C 317.390 64.045,318.218 64.500,318.250 64.500 C 318.282 64.500,319.101 64.950,320.070 65.500 C 321.039 66.050,321.875 66.500,321.928 66.500 C 321.982 66.500,322.526 66.792,323.138 67.148 C 323.749 67.504,324.662 68.019,325.167 68.292 C 327.478 69.543,328.143 69.909,329.215 70.516 C 329.847 70.874,330.397 71.167,330.439 71.167 C 330.481 71.167,331.131 71.523,331.883 71.958 L 333.250 72.750 366.083 72.799 C 396.746 72.845,398.952 72.830,399.458 72.565 L 400.000 72.281 400.000 69.133 C 400.000 66.290,399.970 65.954,399.689 65.652 C 399.379 65.320,399.145 65.317,362.647 65.235 C 342.445 65.190,325.523 65.113,325.042 65.065 C 323.888 64.948,323.929 64.716,325.125 64.588 C 325.652 64.531,326.983 64.362,328.083 64.212 C 329.804 63.978,332.527 63.932,347.583 63.885 C 357.208 63.854,365.255 63.791,365.465 63.743 C 365.967 63.630,365.799 63.387,365.123 63.249 C 364.436 63.109,362.246 62.387,361.558 62.073 C 361.269 61.941,360.964 61.833,360.879 61.833 C 360.644 61.833,357.522 60.409,355.920 59.571 C 351.113 57.056,347.091 54.210,343.540 50.811 L 341.996 49.333 323.076 49.333 L 304.156 49.333 304.022 49.694 C 303.939 49.919,303.998 50.436,304.179 51.069 C 305.712 56.428,305.761 56.381,301.333 53.833 C 300.737 53.490,299.650 52.889,298.917 52.497 C 298.183 52.105,296.478 51.158,295.126 50.392 C 293.775 49.626,292.640 49.000,292.605 49.000 C 292.569 49.000,291.481 48.400,290.187 47.667 C 288.893 46.933,287.805 46.333,287.770 46.333 C 287.699 46.333,283.054 43.747,282.667 43.491 C 282.529 43.401,282.192 43.222,281.917 43.095 C 281.642 42.968,280.490 42.331,279.357 41.681 C 277.159 40.418,276.605 40.195,276.419 40.496 M345.074 79.348 C 344.914 79.608,345.085 79.713,346.667 80.322 C 347.446 80.623,348.158 80.928,348.250 81.000 C 348.342 81.073,348.679 81.211,349.000 81.307 C 349.321 81.403,350.108 81.681,350.750 81.925 C 351.392 82.169,352.217 82.457,352.583 82.564 C 352.950 82.671,353.587 82.883,354.000 83.036 C 354.412 83.188,355.313 83.472,356.000 83.668 C 356.688 83.863,357.662 84.162,358.167 84.332 C 358.671 84.503,360.358 84.951,361.917 85.328 C 363.475 85.705,365.313 86.152,366.000 86.321 C 367.597 86.713,370.205 87.231,372.750 87.660 C 377.766 88.506,378.726 88.661,380.917 88.979 C 384.349 89.477,387.439 89.820,390.167 90.004 C 391.496 90.094,393.221 90.240,394.000 90.329 C 396.899 90.659,398.958 90.725,399.491 90.504 L 400.000 90.293 400.000 84.923 L 400.000 79.554 399.575 79.360 C 398.988 79.092,345.240 79.080,345.074 79.348 M310.583 85.869 C 310.400 85.970,310.137 86.114,310.000 86.190 C 307.528 87.548,303.508 89.032,299.667 90.005 C 295.424 91.080,295.212 91.241,298.208 91.116 C 302.953 90.918,306.755 89.670,309.583 87.384 C 311.085 86.170,311.682 85.266,310.583 85.869 M7.631 89.762 C 7.015 89.884,6.108 90.176,5.615 90.409 C 5.121 90.642,4.676 90.833,4.624 90.833 C 4.327 90.833,2.167 92.439,1.169 93.402 L 0.000 94.531 0.000 102.682 L 0.000 110.833 19.063 110.833 L 38.126 110.833 38.481 109.292 C 38.993 107.067,38.972 104.289,38.427 102.166 C 37.703 99.349,37.241 98.297,35.682 95.927 C 34.803 94.591,32.977 92.986,31.000 91.810 C 28.603 90.385,24.311 90.117,21.648 91.226 C 20.405 91.743,19.044 92.460,18.919 92.663 C 18.767 92.909,17.730 92.872,17.470 92.613 C 15.277 90.419,10.817 89.127,7.631 89.762 M196.917 92.820 C 194.732 93.422,191.985 95.383,190.594 97.333 C 190.366 97.654,190.114 97.993,190.036 98.086 C 189.732 98.447,188.991 100.248,188.892 100.867 C 188.689 102.134,188.232 102.558,186.827 102.780 C 182.997 103.386,177.833 107.874,177.833 110.597 C 177.833 110.800,181.281 110.833,202.167 110.833 L 226.500 110.833 226.500 109.330 C 226.500 105.996,225.006 103.606,222.017 102.155 C 220.362 101.352,220.339 101.327,220.336 100.344 C 220.315 94.177,213.546 90.739,207.583 93.867 C 207.217 94.059,206.796 94.320,206.648 94.446 C 205.981 95.018,205.407 95.002,204.471 94.386 C 202.200 92.892,199.034 92.236,196.917 92.820 " stroke="none" fill="#e3ddd8" fill-rule="evenodd"></path><path id="path1" d="M0.000 46.917 C 0.000 78.083,0.056 93.833,0.167 93.833 C 0.258 93.833,0.333 93.769,0.333 93.691 C 0.333 93.493,1.302 92.500,1.496 92.500 C 1.583 92.500,1.735 92.350,1.833 92.167 C 1.931 91.983,2.114 91.833,2.238 91.833 C 2.363 91.833,2.505 91.727,2.555 91.598 C 2.653 91.343,2.870 91.212,4.611 90.358 C 6.716 89.324,7.078 89.205,8.390 89.114 C 10.028 89.000,12.260 89.225,12.917 89.569 C 13.192 89.713,13.536 89.832,13.682 89.832 C 13.910 89.833,14.696 90.206,16.439 91.139 C 16.668 91.262,16.895 91.468,16.945 91.598 C 16.995 91.727,17.137 91.833,17.262 91.833 C 17.386 91.833,17.569 91.983,17.667 92.167 C 17.872 92.550,18.421 92.609,18.617 92.268 C 18.690 92.140,19.012 91.917,19.333 91.771 C 19.654 91.626,20.029 91.441,20.167 91.361 C 21.089 90.824,22.323 90.398,24.167 89.981 C 25.103 89.769,27.569 89.941,28.188 90.261 C 28.442 90.392,28.825 90.500,29.040 90.500 C 29.254 90.500,29.724 90.650,30.083 90.833 C 30.443 91.017,30.822 91.167,30.926 91.167 C 31.030 91.167,31.251 91.317,31.417 91.500 C 31.583 91.683,31.820 91.833,31.944 91.833 C 32.068 91.833,32.298 91.983,32.455 92.167 C 32.612 92.350,32.820 92.500,32.918 92.500 C 33.147 92.500,35.503 94.771,35.925 95.400 C 36.104 95.666,36.381 96.078,36.542 96.317 C 36.703 96.555,36.945 96.989,37.081 97.280 C 37.217 97.572,37.399 97.854,37.485 97.907 C 37.571 97.960,37.693 98.247,37.756 98.544 C 37.819 98.840,37.970 99.197,38.092 99.336 C 38.215 99.475,38.398 99.959,38.499 100.413 C 38.601 100.866,38.753 101.320,38.838 101.422 C 39.374 102.068,39.430 108.407,38.912 109.893 C 38.583 110.837,38.581 110.833,39.333 110.833 C 39.974 110.833,40.000 110.812,40.000 110.292 C 40.001 108.638,41.077 105.080,42.283 102.750 C 42.520 102.292,42.830 101.692,42.972 101.417 C 44.794 97.882,49.704 93.432,54.250 91.197 C 62.619 87.081,73.604 86.481,80.917 89.740 C 81.192 89.863,81.580 90.012,81.779 90.072 C 81.978 90.132,82.690 90.458,83.362 90.796 C 84.423 91.330,84.738 91.411,85.764 91.414 L 86.944 91.417 88.097 90.471 C 88.731 89.951,89.400 89.386,89.583 89.215 C 90.398 88.458,92.671 86.675,93.583 86.077 C 95.366 84.908,97.452 84.021,100.750 83.025 C 106.459 81.302,106.283 81.333,110.374 81.333 C 114.121 81.333,114.273 81.353,119.250 82.487 C 121.287 82.951,124.089 83.869,125.083 84.398 C 125.358 84.545,125.645 84.665,125.721 84.666 C 125.911 84.667,128.005 85.880,129.417 86.806 C 131.188 87.968,134.703 91.575,136.078 93.642 C 137.386 95.607,137.401 95.618,138.272 95.244 C 143.908 92.827,152.161 91.903,157.644 93.074 C 158.252 93.204,159.050 93.357,159.417 93.414 C 159.783 93.471,160.383 93.620,160.750 93.743 C 161.117 93.867,162.054 94.173,162.833 94.423 C 163.612 94.673,164.325 94.933,164.417 95.002 C 164.508 95.070,164.768 95.183,164.993 95.252 C 169.420 96.613,175.438 101.681,177.981 106.190 C 178.571 107.236,179.095 107.529,179.331 106.945 C 179.524 106.466,181.996 104.077,182.448 103.933 C 182.643 103.871,182.842 103.718,182.890 103.593 C 182.938 103.467,183.222 103.311,183.521 103.245 C 183.820 103.180,184.161 103.030,184.278 102.913 C 184.395 102.795,184.887 102.646,185.371 102.581 C 185.854 102.516,186.336 102.394,186.441 102.309 C 186.545 102.225,186.957 102.100,187.355 102.032 C 188.029 101.917,188.086 101.866,188.179 101.296 C 188.233 100.960,188.356 100.586,188.451 100.467 C 188.546 100.348,188.672 99.976,188.733 99.642 C 188.793 99.307,188.953 98.942,189.088 98.830 C 189.223 98.718,189.335 98.541,189.336 98.438 C 189.345 97.875,191.611 95.194,192.735 94.417 C 195.058 92.809,196.642 92.199,198.876 92.050 C 199.836 91.987,200.341 92.033,200.838 92.232 C 201.206 92.380,201.674 92.501,201.878 92.502 C 202.083 92.504,202.438 92.613,202.667 92.745 C 202.896 92.878,203.254 93.063,203.463 93.157 C 203.671 93.251,203.934 93.406,204.046 93.500 C 205.164 94.440,205.683 94.609,206.083 94.167 C 206.249 93.983,206.455 93.833,206.541 93.833 C 206.627 93.833,206.888 93.683,207.121 93.500 C 207.354 93.317,207.660 93.167,207.801 93.167 C 207.942 93.167,208.181 93.055,208.332 92.918 C 208.483 92.781,208.997 92.595,209.474 92.505 C 209.952 92.414,210.485 92.264,210.660 92.170 C 211.072 91.950,213.261 91.950,213.673 92.170 C 213.848 92.264,214.382 92.414,214.859 92.505 C 215.336 92.595,215.850 92.781,216.002 92.918 C 216.153 93.055,216.402 93.167,216.555 93.167 C 216.708 93.167,216.983 93.317,217.167 93.500 C 217.350 93.683,217.544 93.833,217.598 93.833 C 217.740 93.833,219.214 95.357,219.452 95.750 C 219.563 95.933,219.740 96.271,219.846 96.500 C 219.951 96.729,220.179 97.225,220.352 97.602 C 220.525 97.978,220.667 98.541,220.668 98.852 C 220.673 100.621,220.846 101.154,221.453 101.268 C 221.768 101.327,222.066 101.478,222.114 101.604 C 222.163 101.730,222.335 101.833,222.498 101.833 C 222.792 101.833,224.702 103.214,224.803 103.499 C 224.831 103.581,225.107 103.923,225.414 104.259 C 225.721 104.594,226.022 105.067,226.083 105.309 C 226.143 105.552,226.294 105.863,226.418 106.000 C 226.722 106.338,227.063 109.016,226.929 110.022 L 226.822 110.833 313.411 110.833 L 400.000 110.833 400.000 106.583 C 400.000 102.651,399.978 102.333,399.708 102.323 C 399.548 102.317,398.779 102.235,398.000 102.142 C 397.221 102.048,396.296 101.976,395.945 101.983 C 395.593 101.989,395.106 101.893,394.861 101.769 C 394.471 101.571,393.232 101.398,391.333 101.278 C 391.012 101.257,390.637 101.169,390.500 101.082 C 390.233 100.912,388.115 100.641,387.194 100.658 C 386.888 100.664,386.401 100.561,386.111 100.428 C 385.576 100.185,384.429 100.013,382.917 99.951 C 382.458 99.932,381.933 99.833,381.750 99.731 C 381.439 99.558,379.441 99.294,378.500 99.302 C 378.271 99.304,377.971 99.209,377.833 99.090 C 377.614 98.901,376.547 98.745,374.480 98.600 C 374.148 98.577,373.660 98.476,373.396 98.376 C 372.906 98.190,371.580 97.987,370.454 97.925 C 370.107 97.906,369.736 97.803,369.629 97.695 C 369.521 97.588,369.123 97.500,368.744 97.500 C 367.965 97.500,366.252 97.210,365.750 96.993 C 365.567 96.914,365.004 96.809,364.500 96.760 C 362.725 96.586,362.538 96.556,362.063 96.376 C 361.595 96.198,360.589 96.021,359.583 95.940 C 359.308 95.918,358.920 95.810,358.719 95.700 C 358.519 95.590,358.164 95.500,357.930 95.500 C 357.543 95.500,357.035 95.401,355.333 94.993 C 355.012 94.916,354.262 94.763,353.667 94.653 C 353.071 94.543,352.512 94.388,352.425 94.310 C 352.338 94.231,352.095 94.167,351.886 94.167 C 351.479 94.167,350.135 93.872,349.583 93.662 C 349.400 93.592,348.800 93.444,348.250 93.333 C 347.700 93.222,347.100 93.070,346.917 92.994 C 346.733 92.918,346.358 92.817,346.083 92.769 C 345.148 92.606,344.086 92.365,342.833 92.032 C 342.146 91.849,341.096 91.576,340.500 91.426 C 339.904 91.276,339.154 91.084,338.833 91.000 C 338.512 90.916,337.837 90.760,337.333 90.653 C 336.829 90.546,336.267 90.401,336.083 90.330 C 335.900 90.260,335.300 90.111,334.750 90.000 C 334.200 89.889,333.600 89.739,333.417 89.667 C 333.100 89.543,332.077 89.284,329.667 88.717 C 329.071 88.577,328.384 88.359,328.141 88.231 C 327.898 88.104,327.505 88.000,327.269 88.000 C 327.033 88.000,326.557 87.887,326.212 87.749 C 325.866 87.611,325.096 87.388,324.500 87.252 C 322.334 86.758,321.244 86.471,320.957 86.318 C 320.796 86.232,320.233 86.053,319.707 85.920 C 319.181 85.787,318.179 85.534,317.481 85.357 C 316.783 85.181,316.071 84.961,315.898 84.868 C 315.725 84.776,315.149 84.646,314.617 84.580 C 313.575 84.450,313.632 84.421,312.255 85.792 C 312.048 85.998,311.793 86.167,311.689 86.167 C 311.585 86.167,311.500 86.229,311.500 86.304 C 311.500 86.380,310.967 86.849,310.317 87.346 C 309.666 87.843,309.011 88.381,308.863 88.542 C 308.714 88.702,308.527 88.833,308.448 88.833 C 308.368 88.833,308.112 88.983,307.879 89.167 C 307.646 89.350,307.350 89.500,307.221 89.500 C 307.092 89.500,306.783 89.643,306.535 89.818 C 306.287 89.993,305.791 90.185,305.434 90.247 C 305.077 90.308,304.627 90.457,304.434 90.578 C 304.241 90.699,303.633 90.851,303.083 90.915 C 302.533 90.979,301.994 91.106,301.884 91.196 C 301.574 91.450,298.303 91.698,296.050 91.638 C 293.194 91.562,293.186 91.551,294.171 89.250 C 294.328 88.883,294.662 88.058,294.914 87.417 C 295.165 86.775,295.424 86.175,295.489 86.083 C 295.554 85.992,295.851 85.289,296.149 84.521 C 296.446 83.753,296.756 83.003,296.838 82.854 C 298.201 80.362,298.176 79.466,296.739 79.307 C 295.717 79.194,295.493 79.151,293.667 78.720 C 290.812 78.047,287.939 76.005,286.857 73.882 C 286.083 72.362,286.329 72.167,289.016 72.167 C 291.346 72.167,291.820 71.952,290.969 71.284 C 290.757 71.118,289.829 70.254,288.908 69.366 C 287.986 68.477,286.786 67.346,286.241 66.853 C 285.696 66.359,284.575 65.309,283.750 64.519 C 282.925 63.729,281.725 62.602,281.083 62.015 C 279.975 61.000,276.929 58.127,272.673 54.083 C 271.611 53.075,270.119 51.688,269.356 51.000 C 268.593 50.313,267.314 49.112,266.512 48.333 C 265.711 47.554,264.612 46.513,264.069 46.019 C 263.527 45.526,262.408 44.475,261.583 43.685 C 258.900 41.114,257.156 39.502,256.656 39.133 C 256.148 38.756,255.953 37.847,256.375 37.820 C 257.558 37.742,263.189 37.892,266.167 38.080 C 268.229 38.211,270.517 38.303,271.250 38.284 C 272.637 38.249,274.371 38.671,275.664 39.358 C 275.984 39.528,276.316 39.667,276.403 39.667 C 276.645 39.667,278.055 40.371,278.304 40.616 C 278.425 40.736,278.671 40.833,278.850 40.833 C 279.030 40.833,279.218 40.939,279.267 41.068 C 279.317 41.198,279.552 41.352,279.791 41.412 C 280.029 41.472,280.408 41.666,280.634 41.844 C 280.860 42.021,281.142 42.167,281.261 42.167 C 281.379 42.167,281.583 42.274,281.714 42.404 C 281.844 42.535,282.206 42.761,282.517 42.905 C 282.829 43.050,283.383 43.352,283.750 43.577 C 284.117 43.801,284.510 44.025,284.625 44.075 C 284.740 44.126,284.927 44.208,285.042 44.258 C 285.156 44.308,285.550 44.534,285.917 44.759 C 286.283 44.984,286.865 45.292,287.208 45.443 C 287.552 45.594,287.833 45.775,287.833 45.846 C 287.833 45.916,288.090 46.059,288.403 46.162 C 288.717 46.266,289.064 46.459,289.174 46.592 C 289.284 46.725,289.503 46.833,289.661 46.833 C 289.819 46.833,290.084 46.983,290.250 47.167 C 290.416 47.350,290.681 47.500,290.839 47.500 C 290.997 47.500,291.216 47.609,291.326 47.741 C 291.436 47.874,291.783 48.068,292.097 48.171 C 292.410 48.275,292.667 48.417,292.667 48.488 C 292.667 48.558,292.948 48.737,293.292 48.886 C 293.916 49.155,294.184 49.306,295.035 49.868 C 295.283 50.032,295.602 50.167,295.743 50.167 C 295.884 50.167,296.150 50.317,296.333 50.500 C 296.517 50.683,296.774 50.833,296.905 50.833 C 297.036 50.833,297.250 50.940,297.380 51.071 C 297.511 51.202,297.873 51.425,298.184 51.568 C 298.761 51.832,299.077 52.013,299.858 52.528 C 300.101 52.688,300.501 52.869,300.747 52.931 C 300.993 52.992,301.233 53.146,301.281 53.271 C 301.330 53.397,301.501 53.500,301.662 53.500 C 301.823 53.500,302.146 53.650,302.379 53.833 C 302.612 54.017,302.870 54.167,302.952 54.167 C 303.035 54.167,303.356 54.354,303.667 54.584 C 303.978 54.813,304.290 54.944,304.359 54.874 C 304.517 54.716,304.246 52.715,304.030 52.447 C 303.943 52.339,303.820 51.913,303.757 51.500 C 303.638 50.714,303.225 48.662,302.987 47.667 C 302.910 47.346,302.706 46.483,302.535 45.750 C 302.363 45.017,302.175 44.304,302.118 44.167 C 302.061 44.029,301.891 43.354,301.740 42.667 C 301.381 41.028,300.888 38.918,300.670 38.083 C 300.575 37.717,300.379 36.967,300.236 36.417 C 300.093 35.867,299.887 34.929,299.778 34.333 C 299.669 33.737,299.496 33.100,299.394 32.917 C 299.292 32.733,299.154 32.133,299.087 31.584 C 299.020 31.034,298.870 30.396,298.752 30.167 C 298.635 29.938,298.484 29.337,298.417 28.833 C 298.349 28.329,298.198 27.729,298.081 27.500 C 297.964 27.271,297.813 26.633,297.747 26.083 C 297.680 25.533,297.557 24.998,297.474 24.893 C 297.391 24.788,297.218 24.151,297.090 23.476 C 296.843 22.177,296.470 20.629,296.068 19.243 C 295.934 18.781,295.754 18.031,295.669 17.577 C 295.463 16.478,295.044 14.761,294.757 13.833 C 294.629 13.421,294.471 12.710,294.404 12.253 C 294.338 11.796,294.193 11.196,294.082 10.919 C 293.801 10.218,293.426 7.852,293.573 7.705 C 293.640 7.638,296.840 7.564,300.685 7.541 C 311.013 7.479,310.280 7.091,317.417 16.419 C 319.185 18.731,321.108 21.260,322.418 23.000 C 323.005 23.779,323.599 24.567,323.737 24.750 C 323.875 24.933,324.315 25.496,324.714 26.000 C 325.541 27.044,328.540 31.027,329.167 31.913 C 329.396 32.237,329.677 32.633,329.790 32.793 C 329.904 32.952,330.354 33.543,330.790 34.105 C 331.227 34.668,331.696 35.293,331.833 35.496 C 331.971 35.699,332.400 36.289,332.786 36.808 C 333.920 38.328,334.745 39.439,336.580 41.917 C 338.751 44.849,340.375 46.961,340.870 47.500 C 341.081 47.729,341.385 48.123,341.547 48.375 C 341.709 48.627,341.925 48.833,342.028 48.833 C 342.131 48.833,342.748 49.378,343.399 50.043 C 344.395 51.059,345.401 51.965,347.078 53.352 C 347.232 53.479,347.490 53.696,347.652 53.833 C 347.960 54.095,348.227 54.280,349.125 54.854 C 349.423 55.044,349.667 55.267,349.667 55.350 C 349.667 55.432,349.780 55.500,349.918 55.500 C 350.057 55.500,350.298 55.650,350.455 55.833 C 350.612 56.017,350.812 56.167,350.900 56.167 C 350.987 56.167,351.552 56.487,352.154 56.878 C 353.712 57.890,353.845 57.968,354.542 58.267 C 354.885 58.415,355.167 58.597,355.167 58.672 C 355.167 58.746,355.386 58.855,355.655 58.914 C 355.924 58.973,356.229 59.124,356.333 59.250 C 356.438 59.376,356.738 59.526,357.000 59.583 C 357.262 59.641,357.565 59.794,357.672 59.923 C 357.779 60.052,358.119 60.205,358.427 60.263 C 358.736 60.321,359.071 60.468,359.172 60.590 C 359.274 60.712,359.595 60.864,359.887 60.928 C 360.178 60.992,360.678 61.184,360.998 61.356 C 361.317 61.527,361.694 61.667,361.835 61.667 C 361.977 61.667,362.240 61.769,362.421 61.895 C 362.602 62.021,363.157 62.210,363.655 62.317 C 364.153 62.423,364.648 62.582,364.755 62.671 C 364.863 62.760,365.318 62.878,365.767 62.933 C 366.216 62.989,366.771 63.160,367.000 63.314 C 367.534 63.673,369.238 64.199,369.716 64.153 C 369.918 64.133,370.196 64.160,370.333 64.211 C 370.584 64.306,372.210 64.477,374.083 64.605 C 375.094 64.675,384.517 64.799,394.542 64.875 L 400.000 64.917 400.000 39.974 L 400.000 15.031 396.125 14.974 C 392.885 14.926,392.182 14.872,391.833 14.644 C 391.604 14.493,391.138 14.322,390.797 14.262 C 390.456 14.202,390.077 14.053,389.954 13.930 C 389.832 13.808,389.487 13.654,389.188 13.588 C 388.889 13.522,388.604 13.363,388.554 13.234 C 388.505 13.105,388.332 13.000,388.169 13.000 C 388.007 13.000,387.771 12.876,387.645 12.724 C 387.520 12.572,387.173 12.346,386.875 12.222 C 386.577 12.097,386.333 11.922,386.333 11.831 C 386.333 11.741,386.225 11.667,386.093 11.667 C 385.960 11.667,385.754 11.535,385.634 11.375 C 385.180 10.767,384.347 10.436,384.018 10.734 C 383.856 10.880,383.644 11.000,383.546 11.000 C 383.449 11.000,383.329 11.105,383.279 11.234 C 383.230 11.363,382.954 11.520,382.667 11.583 C 382.379 11.646,382.104 11.801,382.056 11.928 C 382.007 12.054,381.715 12.205,381.407 12.263 C 381.098 12.321,380.760 12.471,380.656 12.596 C 380.552 12.722,380.193 12.872,379.858 12.931 C 379.524 12.990,379.090 13.138,378.893 13.261 C 378.697 13.383,378.135 13.531,377.643 13.589 C 377.152 13.647,376.467 13.800,376.122 13.930 C 375.256 14.256,371.246 14.256,370.378 13.931 C 370.033 13.801,369.233 13.653,368.601 13.602 C 367.969 13.550,367.331 13.403,367.184 13.274 C 367.037 13.146,366.567 12.990,366.139 12.929 C 365.711 12.867,365.270 12.708,365.160 12.575 C 365.050 12.442,364.833 12.333,364.679 12.333 C 364.524 12.333,364.144 12.146,363.833 11.917 C 363.523 11.687,363.168 11.500,363.046 11.500 C 362.923 11.500,362.780 11.387,362.727 11.250 C 362.674 11.112,362.533 11.000,362.413 11.000 C 362.152 11.000,361.610 10.551,360.448 9.371 C 359.228 8.132,359.012 7.875,358.800 7.410 C 358.697 7.185,358.551 7.000,358.475 7.000 C 358.400 7.000,358.226 6.756,358.089 6.458 C 357.952 6.160,357.775 5.804,357.696 5.667 C 357.235 4.865,356.828 3.826,356.732 3.205 C 356.672 2.813,356.562 2.455,356.488 2.409 C 356.413 2.363,356.307 1.971,356.251 1.538 C 356.194 1.105,356.114 0.581,356.071 0.375 L 355.994 0.000 286.913 0.000 C 224.610 0.000,217.833 0.025,217.833 0.259 C 217.833 0.401,217.560 0.631,217.226 0.771 C 216.892 0.911,216.511 1.132,216.380 1.262 C 216.250 1.393,216.017 1.500,215.863 1.501 C 215.709 1.502,215.358 1.651,215.083 1.833 C 214.808 2.015,214.432 2.165,214.248 2.166 C 214.063 2.166,213.650 2.306,213.331 2.476 C 213.011 2.646,212.375 2.841,211.917 2.909 C 211.458 2.977,210.933 3.114,210.750 3.213 C 210.567 3.313,209.479 3.494,208.333 3.617 C 204.266 4.054,204.291 4.045,203.997 5.235 C 203.904 5.610,203.684 6.217,203.508 6.583 C 203.332 6.950,203.142 7.362,203.086 7.500 C 203.030 7.638,202.803 8.050,202.582 8.417 C 202.361 8.783,202.054 9.308,201.901 9.583 C 201.747 9.858,201.519 10.143,201.394 10.217 C 201.269 10.290,201.167 10.426,201.167 10.519 C 201.167 10.694,198.932 13.000,198.763 13.000 C 198.710 13.000,198.498 13.153,198.292 13.341 C 198.085 13.529,197.802 13.787,197.662 13.914 C 197.522 14.042,197.222 14.230,196.996 14.332 C 196.769 14.434,196.283 14.699,195.917 14.922 C 195.550 15.145,195.063 15.412,194.833 15.516 C 194.604 15.620,194.108 15.846,193.732 16.019 C 193.355 16.192,192.932 16.333,192.792 16.333 C 192.651 16.333,192.209 16.482,191.810 16.663 C 191.410 16.844,190.849 16.994,190.563 16.996 C 190.276 16.998,189.723 17.112,189.333 17.250 C 188.311 17.611,181.355 17.611,180.333 17.250 C 179.944 17.112,179.427 17.000,179.185 17.000 C 178.943 17.000,178.465 16.850,178.123 16.667 C 177.781 16.483,177.361 16.333,177.190 16.333 C 177.018 16.333,176.688 16.183,176.455 16.000 C 176.221 15.817,175.921 15.667,175.788 15.667 C 175.654 15.667,175.366 15.532,175.147 15.368 C 174.929 15.204,174.544 14.981,174.292 14.872 C 174.040 14.763,173.833 14.597,173.833 14.504 C 173.833 14.410,173.690 14.333,173.514 14.333 C 173.221 14.333,172.803 14.049,171.983 13.292 C 171.809 13.131,171.601 13.000,171.520 13.000 C 171.440 13.000,171.267 12.838,171.135 12.640 C 170.882 12.258,169.883 12.150,169.678 12.482 C 169.515 12.745,168.110 13.660,167.863 13.664 C 167.742 13.665,167.527 13.783,167.385 13.925 C 167.243 14.067,166.912 14.226,166.650 14.278 C 166.388 14.331,166.090 14.475,165.987 14.599 C 165.884 14.723,165.526 14.872,165.192 14.929 C 164.857 14.986,164.278 15.176,163.906 15.350 C 163.533 15.524,162.998 15.667,162.718 15.667 C 162.437 15.667,161.917 15.795,161.562 15.951 C 160.619 16.366,154.112 16.383,153.000 15.974 C 152.587 15.822,151.848 15.649,151.357 15.590 C 150.865 15.532,150.303 15.383,150.107 15.261 C 149.910 15.138,149.476 14.990,149.142 14.931 C 148.807 14.872,148.442 14.714,148.330 14.579 C 148.218 14.444,147.995 14.333,147.835 14.333 C 147.676 14.333,147.360 14.188,147.134 14.010 C 146.908 13.833,146.522 13.637,146.276 13.575 C 146.030 13.513,145.774 13.375,145.706 13.268 C 145.639 13.161,145.421 13.001,145.223 12.912 C 144.035 12.379,141.254 9.455,140.286 7.721 C 139.702 6.676,139.000 5.262,139.000 5.131 C 139.000 5.049,138.860 4.667,138.689 4.283 C 138.517 3.898,138.327 3.138,138.267 2.594 C 138.206 2.050,138.091 1.525,138.010 1.428 C 137.929 1.330,137.811 0.969,137.746 0.625 L 137.630 0.000 115.315 0.000 C 103.042 0.000,93.002 0.056,93.005 0.125 C 93.007 0.194,93.239 0.887,93.520 1.667 C 95.936 8.369,92.561 16.510,85.925 19.985 C 83.024 21.504,77.964 22.117,74.500 21.368 C 72.298 20.893,70.641 20.310,68.232 19.166 C 67.277 18.712,66.125 18.181,65.672 17.987 L 64.848 17.632 63.299 18.786 C 57.883 22.821,52.799 23.668,46.129 21.644 C 39.163 19.531,33.119 13.845,31.517 7.896 C 31.129 6.455,31.013 6.399,28.133 6.280 C 24.207 6.117,21.534 5.470,18.794 4.020 C 16.673 2.897,13.500 0.614,13.500 0.211 C 13.500 0.044,12.076 0.000,6.750 0.000 L 0.000 0.000 0.000 46.917 M365.946 74.542 C 365.235 75.061,365.461 77.233,366.245 77.430 C 367.065 77.636,367.500 77.138,367.500 75.996 C 367.500 74.601,366.782 73.930,365.946 74.542 M370.333 74.667 C 369.527 75.473,370.057 77.500,371.074 77.500 C 371.664 77.500,372.000 76.912,372.000 75.880 C 372.000 74.918,371.622 74.333,371.000 74.333 C 370.817 74.333,370.517 74.483,370.333 74.667 M374.857 74.680 C 374.273 75.224,374.394 76.908,375.045 77.302 C 375.886 77.811,376.404 77.335,376.467 75.995 C 376.539 74.482,375.756 73.843,374.857 74.680 M379.563 74.497 C 378.784 74.812,378.908 77.108,379.718 77.378 C 380.580 77.665,381.000 77.188,381.000 75.922 C 381.000 74.555,380.543 74.102,379.563 74.497 M383.942 74.638 C 383.539 75.084,383.559 76.851,383.971 77.224 C 384.761 77.939,385.571 77.277,385.571 75.917 C 385.571 74.548,384.667 73.838,383.942 74.638 M388.537 74.593 C 387.681 75.193,388.148 77.500,389.126 77.500 C 390.089 77.500,390.483 74.842,389.572 74.496 C 389.014 74.284,388.973 74.287,388.537 74.593 M393.042 74.587 C 392.489 74.978,392.485 76.854,393.037 77.241 C 393.932 77.868,394.667 77.285,394.667 75.949 C 394.667 74.622,393.900 73.980,393.042 74.587 M397.492 74.674 C 396.941 75.226,397.081 76.978,397.705 77.327 C 398.517 77.781,399.071 77.277,399.133 76.025 C 399.205 74.558,398.329 73.837,397.492 74.674 " stroke="none" fill="#131324" fill-rule="evenodd"></path><path id="path2" d="M293.866 8.103 C 293.766 8.281,293.853 8.918,294.123 9.978 C 295.048 13.623,295.316 14.721,297.179 22.500 C 297.563 24.104,297.977 25.792,298.098 26.250 C 298.220 26.708,298.514 27.908,298.752 28.917 C 298.991 29.925,299.328 31.313,299.501 32.000 C 299.675 32.688,299.974 33.925,300.167 34.750 C 300.359 35.575,300.658 36.813,300.832 37.500 C 301.006 38.188,301.343 39.575,301.581 40.583 C 301.819 41.592,302.117 42.792,302.243 43.250 C 302.369 43.708,302.674 44.983,302.921 46.083 C 303.505 48.683,303.814 49.543,304.123 49.425 C 304.254 49.374,312.836 49.333,323.194 49.333 L 342.028 49.333 341.722 48.937 C 341.554 48.719,340.967 48.018,340.417 47.379 C 339.867 46.740,339.267 46.006,339.083 45.748 C 338.900 45.490,338.672 45.197,338.577 45.097 C 338.412 44.924,334.685 39.867,334.167 39.112 C 334.029 38.912,332.794 37.248,331.422 35.416 C 330.050 33.583,328.668 31.710,328.352 31.254 C 328.035 30.797,327.712 30.347,327.633 30.254 C 327.555 30.160,327.174 29.665,326.787 29.153 C 325.060 26.869,324.941 26.714,324.071 25.611 C 323.697 25.137,322.314 23.325,320.996 21.583 C 319.679 19.842,317.922 17.532,317.092 16.451 C 316.262 15.369,315.471 14.313,315.333 14.103 C 315.196 13.894,314.939 13.579,314.762 13.403 C 314.586 13.228,314.050 12.559,313.571 11.917 C 311.982 9.785,310.372 8.580,308.417 8.059 C 307.058 7.697,294.071 7.736,293.866 8.103 " stroke="none" fill="#cb330c" fill-rule="evenodd"></path><path id="path3" d="M256.875 38.271 C 256.485 38.440,256.666 38.790,257.565 39.607 C 258.410 40.373,261.444 43.219,264.662 46.261 C 265.444 47.000,266.682 48.163,267.414 48.844 C 268.145 49.526,268.862 50.196,269.006 50.333 C 269.151 50.471,270.343 51.596,271.657 52.833 C 272.970 54.071,274.281 55.308,274.568 55.583 C 274.856 55.858,275.690 56.640,276.421 57.321 C 277.152 58.002,278.391 59.164,279.175 59.904 C 279.959 60.644,281.681 62.262,283.003 63.500 C 284.325 64.737,286.046 66.353,286.828 67.090 C 287.610 67.827,288.807 68.952,289.488 69.590 C 292.704 72.604,292.702 72.494,289.531 72.497 C 286.859 72.501,286.585 72.596,286.922 73.405 C 288.174 76.400,292.165 78.665,297.219 79.248 C 298.555 79.402,298.567 79.516,297.501 81.917 C 297.419 82.100,297.119 82.813,296.833 83.500 C 296.548 84.188,296.247 84.900,296.164 85.083 C 295.995 85.461,295.718 86.130,294.889 88.167 C 294.571 88.946,294.209 89.743,294.083 89.937 C 293.671 90.572,293.946 91.053,294.649 90.928 C 296.818 90.540,300.412 89.741,300.652 89.592 C 300.767 89.522,301.248 89.365,301.722 89.244 C 303.128 88.884,305.534 88.043,306.768 87.479 C 307.145 87.307,307.522 87.167,307.606 87.167 C 307.690 87.167,308.207 86.931,308.755 86.642 C 311.978 84.943,313.583 84.167,313.868 84.167 C 314.166 84.167,317.176 84.953,319.583 85.660 C 320.793 86.015,322.619 86.522,324.417 87.002 C 325.150 87.198,326.237 87.495,326.833 87.663 C 327.429 87.831,328.554 88.134,329.333 88.336 C 330.112 88.539,331.087 88.801,331.500 88.919 C 332.239 89.130,336.919 90.288,340.333 91.104 C 341.296 91.334,342.271 91.593,342.500 91.680 C 342.729 91.768,344.042 92.099,345.417 92.416 C 346.792 92.734,349.342 93.340,351.083 93.764 C 354.892 94.690,355.885 94.909,358.167 95.323 C 359.129 95.497,360.254 95.722,360.667 95.822 C 361.079 95.922,362.467 96.191,363.750 96.421 C 365.033 96.651,366.479 96.918,366.963 97.016 C 367.447 97.113,368.497 97.295,369.296 97.420 C 370.096 97.546,371.650 97.805,372.750 97.996 C 373.850 98.188,375.753 98.493,376.978 98.675 C 378.204 98.856,379.261 99.039,379.328 99.080 C 379.395 99.122,380.268 99.267,381.267 99.404 C 383.177 99.664,385.293 100.001,387.681 100.424 C 388.468 100.563,389.668 100.745,390.348 100.828 C 391.027 100.911,392.064 101.063,392.651 101.164 C 393.239 101.266,394.214 101.415,394.818 101.496 C 395.422 101.576,396.581 101.762,397.394 101.909 C 398.599 102.126,398.974 102.137,399.435 101.971 L 400.000 101.766 400.000 96.396 L 400.000 91.026 399.542 90.939 C 399.290 90.890,398.146 90.806,397.000 90.751 C 395.854 90.696,394.017 90.546,392.917 90.418 C 391.817 90.290,389.979 90.137,388.833 90.078 C 387.688 90.019,386.450 89.906,386.083 89.827 C 385.717 89.748,384.554 89.603,383.500 89.504 C 382.446 89.405,381.058 89.219,380.417 89.090 C 379.775 88.961,378.800 88.810,378.250 88.755 C 377.700 88.699,376.725 88.545,376.083 88.413 C 374.796 88.148,372.579 87.770,370.199 87.409 C 369.345 87.280,368.561 87.121,368.456 87.056 C 368.351 86.992,367.775 86.848,367.175 86.737 C 365.940 86.510,364.152 86.096,362.917 85.753 C 362.458 85.626,361.596 85.402,361.000 85.255 C 358.338 84.601,357.479 84.357,355.917 83.812 C 355.642 83.716,355.004 83.525,354.500 83.387 C 353.996 83.249,353.508 83.078,353.417 83.006 C 353.325 82.935,352.856 82.785,352.374 82.672 C 351.893 82.559,351.462 82.407,351.417 82.333 C 351.371 82.260,350.959 82.110,350.500 82.000 C 350.041 81.890,349.624 81.732,349.573 81.650 C 349.522 81.567,349.354 81.499,349.198 81.498 C 349.043 81.498,348.542 81.312,348.083 81.087 C 347.625 80.862,347.149 80.675,347.026 80.672 C 346.902 80.669,346.602 80.557,346.359 80.422 C 346.116 80.287,345.630 80.064,345.280 79.925 C 344.790 79.732,344.655 79.594,344.696 79.331 L 344.750 78.988 371.944 78.996 C 396.017 79.004,399.167 78.976,399.390 78.752 C 399.529 78.614,399.723 78.500,399.821 78.500 C 400.236 78.500,400.046 73.389,399.625 73.230 C 399.419 73.152,384.400 73.050,366.250 73.003 L 333.250 72.917 332.083 72.272 C 331.442 71.918,330.429 71.364,329.833 71.043 C 329.237 70.721,328.675 70.401,328.583 70.330 C 328.492 70.260,327.892 69.928,327.250 69.593 C 326.608 69.257,325.483 68.646,324.750 68.234 C 324.017 67.822,323.192 67.373,322.917 67.237 C 322.642 67.101,321.817 66.651,321.083 66.237 C 320.350 65.823,319.525 65.373,319.250 65.237 C 318.975 65.101,318.150 64.651,317.417 64.237 C 316.683 63.823,315.858 63.371,315.583 63.231 C 315.308 63.091,314.783 62.799,314.417 62.581 C 314.050 62.363,313.450 62.034,313.083 61.850 C 312.717 61.666,311.892 61.215,311.250 60.849 C 310.608 60.482,309.596 59.923,309.000 59.606 C 308.404 59.289,307.579 58.835,307.167 58.598 C 306.754 58.361,306.154 58.046,305.833 57.898 C 305.512 57.750,305.212 57.581,305.167 57.523 C 305.121 57.464,304.821 57.287,304.500 57.130 C 304.179 56.972,303.392 56.543,302.750 56.177 C 302.108 55.811,301.246 55.337,300.833 55.125 C 300.421 54.912,299.577 54.459,298.958 54.119 C 298.340 53.778,297.327 53.223,296.708 52.886 C 296.090 52.548,295.283 52.098,294.917 51.886 C 294.550 51.673,294.012 51.389,293.720 51.253 C 293.429 51.117,292.792 50.770,292.304 50.482 C 291.816 50.194,290.929 49.702,290.333 49.388 C 289.737 49.075,288.837 48.586,288.333 48.301 C 286.731 47.396,285.432 46.681,284.917 46.420 C 284.642 46.281,284.042 45.958,283.583 45.702 C 283.125 45.447,282.075 44.869,281.250 44.419 C 280.425 43.969,279.375 43.391,278.917 43.136 C 278.458 42.880,277.855 42.551,277.577 42.405 C 276.933 42.066,276.347 41.216,276.221 40.436 C 276.104 39.719,275.492 39.381,273.167 38.749 C 271.789 38.375,257.594 37.958,256.875 38.271 M349.083 64.012 C 333.377 64.093,330.428 64.146,328.500 64.385 C 327.262 64.538,325.969 64.664,325.625 64.665 C 325.281 64.666,325.000 64.742,325.000 64.833 C 325.000 65.032,371.234 65.048,371.742 64.849 C 372.069 64.721,370.173 64.274,368.250 64.025 C 367.792 63.965,359.167 63.959,349.083 64.012 M367.167 74.667 C 367.700 75.200,367.646 76.897,367.085 77.265 C 366.116 77.899,365.391 77.098,365.565 75.583 C 365.703 74.379,366.451 73.951,367.167 74.667 M371.667 74.667 C 372.087 75.087,372.131 76.572,371.741 77.130 C 371.417 77.592,370.776 77.609,370.333 77.167 C 369.564 76.397,370.049 74.333,371.000 74.333 C 371.183 74.333,371.483 74.483,371.667 74.667 M376.157 74.626 C 376.737 75.095,376.601 76.969,375.962 77.327 C 375.149 77.781,374.596 77.277,374.534 76.025 C 374.463 74.578,375.255 73.895,376.157 74.626 M380.630 74.593 C 381.206 74.997,381.178 76.876,380.589 77.262 C 379.966 77.670,379.295 77.390,379.133 76.654 C 378.768 74.984,379.583 73.860,380.630 74.593 M385.260 74.678 C 385.978 75.471,385.513 77.500,384.612 77.500 C 383.955 77.500,383.667 77.026,383.667 75.946 C 383.667 74.464,384.480 73.816,385.260 74.678 M389.572 74.496 C 390.102 74.697,390.226 76.750,389.738 77.238 C 388.969 78.008,388.167 77.325,388.167 75.900 C 388.167 74.551,388.594 74.124,389.572 74.496 M394.458 74.791 C 395.059 75.577,394.523 77.500,393.704 77.500 C 392.662 77.500,392.144 75.222,393.042 74.587 C 393.474 74.282,394.143 74.378,394.458 74.791 M398.677 74.547 C 399.591 75.259,399.681 76.360,398.886 77.098 C 397.968 77.948,397.167 77.431,397.167 75.991 C 397.167 74.614,397.884 73.929,398.677 74.547 " stroke="none" fill="#103d6c" fill-rule="evenodd"></path><path id="path4" d="M13.500 0.211 C 13.500 0.614,16.673 2.897,18.794 4.020 C 21.534 5.470,24.207 6.117,28.133 6.280 C 31.013 6.399,31.129 6.455,31.517 7.896 C 33.119 13.845,39.163 19.531,46.129 21.644 C 52.799 23.668,57.883 22.821,63.299 18.786 L 64.848 17.632 65.672 17.987 C 66.125 18.181,67.277 18.712,68.232 19.166 C 75.629 22.681,83.015 22.515,87.987 18.723 C 90.998 16.426,92.832 13.839,93.520 10.917 C 94.406 7.151,94.401 4.239,93.504 1.625 L 92.947 0.000 53.223 0.000 C 21.335 0.000,13.500 0.042,13.500 0.211 M137.746 0.625 C 137.811 0.969,137.929 1.330,138.010 1.428 C 138.091 1.525,138.206 2.050,138.267 2.594 C 138.327 3.138,138.517 3.898,138.689 4.283 C 138.860 4.667,139.000 5.049,139.000 5.131 C 139.000 5.262,139.702 6.676,140.286 7.721 C 141.254 9.455,144.035 12.379,145.223 12.912 C 145.421 13.001,145.639 13.161,145.706 13.268 C 145.774 13.375,146.030 13.513,146.276 13.575 C 146.522 13.637,146.908 13.833,147.134 14.010 C 147.360 14.188,147.676 14.333,147.835 14.333 C 147.995 14.333,148.218 14.444,148.330 14.579 C 148.442 14.714,148.807 14.872,149.142 14.931 C 149.476 14.990,149.910 15.138,150.107 15.261 C 150.303 15.383,150.865 15.532,151.357 15.590 C 151.848 15.649,152.587 15.822,153.000 15.974 C 154.112 16.383,160.619 16.366,161.562 15.951 C 161.917 15.795,162.437 15.667,162.718 15.667 C 162.998 15.667,163.533 15.524,163.906 15.350 C 164.278 15.176,164.857 14.986,165.192 14.929 C 165.526 14.872,165.884 14.723,165.987 14.599 C 166.090 14.475,166.388 14.331,166.650 14.278 C 166.912 14.226,167.243 14.067,167.385 13.925 C 167.527 13.783,167.742 13.665,167.863 13.664 C 168.110 13.660,169.515 12.745,169.678 12.482 C 169.883 12.150,170.882 12.258,171.135 12.640 C 171.267 12.838,171.440 13.000,171.520 13.000 C 171.601 13.000,171.809 13.131,171.983 13.292 C 172.803 14.049,173.221 14.333,173.514 14.333 C 173.690 14.333,173.833 14.410,173.833 14.504 C 173.833 14.597,174.040 14.763,174.292 14.872 C 174.544 14.981,174.929 15.204,175.147 15.368 C 175.366 15.532,175.654 15.667,175.788 15.667 C 175.921 15.667,176.221 15.817,176.455 16.000 C 176.688 16.183,177.018 16.333,177.190 16.333 C 177.361 16.333,177.781 16.483,178.123 16.667 C 178.465 16.850,178.943 17.000,179.185 17.000 C 179.427 17.000,179.944 17.112,180.333 17.250 C 181.355 17.611,188.311 17.611,189.333 17.250 C 189.723 17.113,190.276 16.998,190.563 16.996 C 190.849 16.994,191.410 16.844,191.810 16.663 C 192.209 16.482,192.651 16.333,192.792 16.333 C 192.932 16.333,193.355 16.192,193.732 16.019 C 194.108 15.846,194.604 15.620,194.833 15.516 C 195.063 15.412,195.550 15.145,195.917 14.922 C 196.283 14.699,196.769 14.434,196.996 14.332 C 197.222 14.230,197.522 14.042,197.662 13.914 C 197.802 13.787,198.085 13.529,198.292 13.341 C 198.498 13.153,198.710 13.000,198.763 13.000 C 198.932 13.000,201.167 10.694,201.167 10.519 C 201.167 10.426,201.269 10.290,201.394 10.217 C 201.519 10.143,201.747 9.858,201.901 9.583 C 202.054 9.308,202.361 8.783,202.582 8.417 C 202.803 8.050,203.030 7.638,203.086 7.500 C 203.142 7.362,203.332 6.950,203.508 6.583 C 203.684 6.217,203.904 5.610,203.997 5.235 C 204.291 4.045,204.266 4.054,208.333 3.617 C 209.479 3.494,210.567 3.313,210.750 3.213 C 210.933 3.114,211.458 2.977,211.917 2.909 C 212.375 2.841,213.011 2.646,213.331 2.476 C 213.650 2.306,214.063 2.166,214.248 2.166 C 214.432 2.165,214.808 2.015,215.083 1.833 C 215.358 1.651,215.709 1.502,215.863 1.501 C 216.017 1.500,216.250 1.393,216.380 1.262 C 216.511 1.132,216.892 0.911,217.226 0.771 C 217.931 0.476,218.049 0.000,217.417 0.000 C 217.178 0.000,217.000 0.096,217.000 0.225 C 217.000 0.348,216.681 0.585,216.292 0.750 C 215.902 0.916,215.246 1.195,214.833 1.369 C 212.455 2.378,209.381 3.098,206.440 3.338 C 204.454 3.500,203.904 3.727,203.730 4.460 C 202.224 10.808,195.741 16.065,188.475 16.830 C 181.324 17.583,176.510 16.326,171.490 12.393 C 170.399 11.539,170.401 11.539,169.565 12.107 C 160.431 18.310,146.301 16.350,141.156 8.167 C 140.204 6.653,140.173 6.599,139.989 6.167 C 139.892 5.938,139.701 5.525,139.565 5.250 C 139.276 4.666,138.566 1.935,138.406 0.792 C 138.316 0.148,138.233 -0.000,137.963 -0.000 C 137.668 -0.000,137.643 0.072,137.746 0.625 M356.071 0.375 C 356.114 0.581,356.194 1.105,356.251 1.538 C 356.307 1.971,356.413 2.363,356.488 2.409 C 356.562 2.455,356.672 2.813,356.732 3.205 C 356.828 3.826,357.235 4.865,357.696 5.667 C 357.775 5.804,357.952 6.160,358.089 6.458 C 358.226 6.756,358.400 7.000,358.475 7.000 C 358.551 7.000,358.697 7.185,358.800 7.410 C 359.012 7.875,359.228 8.132,360.448 9.371 C 361.610 10.551,362.152 11.000,362.413 11.000 C 362.533 11.000,362.674 11.112,362.727 11.250 C 362.780 11.387,362.923 11.500,363.046 11.500 C 363.168 11.500,363.523 11.687,363.833 11.917 C 364.144 12.146,364.524 12.333,364.679 12.333 C 364.833 12.333,365.050 12.442,365.160 12.575 C 365.270 12.708,365.711 12.867,366.139 12.929 C 366.567 12.990,367.037 13.146,367.184 13.274 C 367.331 13.403,367.969 13.550,368.601 13.602 C 369.233 13.653,370.033 13.801,370.378 13.931 C 371.246 14.256,375.256 14.256,376.122 13.930 C 376.467 13.800,377.152 13.647,377.643 13.589 C 378.135 13.531,378.697 13.383,378.893 13.261 C 379.090 13.138,379.524 12.990,379.858 12.931 C 380.193 12.872,380.552 12.722,380.656 12.596 C 380.760 12.471,381.098 12.321,381.407 12.263 C 381.715 12.205,382.007 12.054,382.056 11.928 C 382.104 11.801,382.379 11.646,382.667 11.583 C 382.954 11.520,383.230 11.363,383.279 11.234 C 383.329 11.105,383.449 11.000,383.546 11.000 C 383.644 11.000,383.856 10.880,384.018 10.734 C 384.347 10.436,385.180 10.767,385.634 11.375 C 385.754 11.535,385.960 11.667,386.093 11.667 C 386.225 11.667,386.333 11.741,386.333 11.831 C 386.333 11.922,386.577 12.097,386.875 12.222 C 387.173 12.346,387.520 12.572,387.645 12.724 C 387.771 12.876,388.007 13.000,388.169 13.000 C 388.332 13.000,388.505 13.105,388.554 13.234 C 388.604 13.363,388.889 13.522,389.188 13.588 C 389.487 13.654,389.832 13.808,389.954 13.930 C 390.077 14.053,390.456 14.202,390.797 14.262 C 391.138 14.322,391.604 14.493,391.833 14.644 C 392.324 14.965,400.000 15.174,400.000 14.867 C 400.000 14.767,398.735 14.668,396.792 14.617 C 393.155 14.520,391.921 14.282,389.730 13.251 C 388.230 12.546,385.241 10.602,385.103 10.241 C 384.944 9.826,384.228 9.976,383.220 10.634 C 381.988 11.439,379.970 12.409,379.000 12.663 C 378.587 12.771,377.943 12.960,377.569 13.085 C 374.036 14.257,367.348 13.363,363.636 11.222 C 361.636 10.068,358.333 6.661,358.333 5.751 C 358.333 5.673,358.233 5.491,358.111 5.346 C 357.806 4.985,357.231 3.322,356.926 1.917 C 356.551 0.185,356.483 0.000,356.227 0.000 C 356.073 0.000,356.020 0.128,356.071 0.375 M293.792 7.624 C 293.631 7.661,293.500 7.817,293.500 7.971 C 293.500 8.437,293.988 10.832,294.144 11.134 C 294.225 11.289,294.343 11.792,294.408 12.250 C 294.472 12.708,294.629 13.421,294.757 13.833 C 295.044 14.761,295.463 16.478,295.669 17.577 C 295.754 18.031,295.934 18.781,296.068 19.243 C 296.470 20.629,296.843 22.177,297.090 23.476 C 297.218 24.151,297.391 24.788,297.474 24.893 C 297.557 24.998,297.680 25.533,297.747 26.083 C 297.813 26.633,297.964 27.271,298.081 27.500 C 298.198 27.729,298.349 28.329,298.417 28.833 C 298.484 29.337,298.635 29.938,298.752 30.167 C 298.870 30.396,299.020 31.034,299.087 31.584 C 299.154 32.133,299.292 32.733,299.394 32.917 C 299.496 33.100,299.669 33.737,299.778 34.333 C 299.887 34.929,300.093 35.867,300.236 36.417 C 300.379 36.967,300.575 37.717,300.670 38.083 C 300.888 38.918,301.381 41.028,301.740 42.667 C 301.891 43.354,302.061 44.029,302.118 44.167 C 302.175 44.304,302.363 45.017,302.535 45.750 C 302.706 46.483,302.910 47.346,302.987 47.667 C 303.225 48.662,303.638 50.714,303.757 51.500 C 303.820 51.913,303.943 52.339,304.030 52.447 C 304.246 52.715,304.517 54.716,304.359 54.874 C 304.290 54.944,303.978 54.813,303.667 54.584 C 303.356 54.354,303.035 54.167,302.952 54.167 C 302.870 54.167,302.612 54.017,302.379 53.833 C 302.146 53.650,301.823 53.500,301.662 53.500 C 301.501 53.500,301.330 53.397,301.281 53.271 C 301.233 53.146,300.993 52.992,300.747 52.931 C 300.501 52.869,300.101 52.688,299.858 52.528 C 299.077 52.013,298.761 51.832,298.184 51.568 C 297.873 51.425,297.511 51.202,297.380 51.071 C 297.250 50.940,297.036 50.833,296.905 50.833 C 296.774 50.833,296.517 50.683,296.333 50.500 C 296.150 50.317,295.884 50.167,295.743 50.167 C 295.602 50.167,295.283 50.032,295.035 49.868 C 294.184 49.306,293.916 49.155,293.292 48.886 C 292.948 48.737,292.667 48.558,292.667 48.488 C 292.667 48.417,292.410 48.275,292.097 48.171 C 291.783 48.068,291.436 47.874,291.326 47.741 C 291.216 47.609,290.997 47.500,290.839 47.500 C 290.681 47.500,290.416 47.350,290.250 47.167 C 290.084 46.983,289.819 46.833,289.661 46.833 C 289.503 46.833,289.284 46.725,289.174 46.592 C 289.064 46.459,288.717 46.266,288.403 46.162 C 288.090 46.059,287.833 45.916,287.833 45.846 C 287.833 45.775,287.552 45.594,287.208 45.443 C 286.865 45.292,286.283 44.984,285.917 44.759 C 285.550 44.534,285.156 44.308,285.042 44.258 C 284.927 44.208,284.740 44.126,284.625 44.075 C 284.510 44.025,284.117 43.801,283.750 43.577 C 283.383 43.352,282.829 43.050,282.517 42.905 C 282.206 42.761,281.844 42.535,281.714 42.404 C 281.583 42.274,281.379 42.167,281.261 42.167 C 281.142 42.167,280.860 42.021,280.634 41.844 C 280.408 41.666,280.029 41.472,279.791 41.412 C 279.552 41.352,279.317 41.198,279.267 41.068 C 279.218 40.939,279.030 40.833,278.850 40.833 C 278.671 40.833,278.425 40.736,278.304 40.616 C 278.057 40.374,276.647 39.667,276.406 39.666 C 276.320 39.665,276.025 39.544,275.750 39.396 C 274.835 38.906,272.763 38.308,271.750 38.243 C 270.798 38.182,270.786 38.186,271.500 38.323 C 274.180 38.840,276.167 39.672,276.167 40.278 C 276.167 40.635,276.208 40.673,276.409 40.507 C 276.741 40.231,277.047 40.354,279.384 41.696 C 280.502 42.338,281.642 42.968,281.917 43.095 C 282.192 43.222,282.529 43.401,282.667 43.491 C 283.054 43.747,287.699 46.333,287.770 46.333 C 287.805 46.333,288.893 46.933,290.187 47.667 C 291.481 48.400,292.569 49.000,292.605 49.000 C 292.640 49.000,293.775 49.626,295.126 50.392 C 296.478 51.158,298.183 52.105,298.917 52.497 C 299.650 52.889,300.737 53.490,301.333 53.833 C 305.348 56.143,305.566 56.149,304.920 53.931 C 304.525 52.579,303.969 50.273,303.971 50.000 C 303.972 49.862,303.836 49.375,303.669 48.917 C 303.502 48.458,303.165 47.183,302.919 46.083 C 302.673 44.983,302.369 43.708,302.243 43.250 C 302.117 42.792,301.819 41.592,301.581 40.583 C 301.343 39.575,301.006 38.188,300.832 37.500 C 300.658 36.813,300.359 35.575,300.167 34.750 C 299.974 33.925,299.675 32.688,299.501 32.000 C 299.328 31.313,298.991 29.925,298.752 28.917 C 298.514 27.908,298.220 26.708,298.098 26.250 C 297.977 25.792,297.563 24.104,297.179 22.500 C 295.316 14.721,295.048 13.623,294.123 9.978 C 293.853 8.918,293.766 8.281,293.866 8.103 C 294.071 7.736,307.058 7.697,308.417 8.059 C 310.372 8.580,311.982 9.785,313.571 11.917 C 314.050 12.559,314.586 13.228,314.762 13.403 C 314.939 13.579,315.196 13.894,315.333 14.103 C 315.471 14.313,316.262 15.369,317.092 16.451 C 317.922 17.532,319.679 19.842,320.996 21.583 C 322.314 23.325,323.697 25.137,324.071 25.611 C 324.941 26.714,325.060 26.869,326.787 29.153 C 327.174 29.665,327.555 30.160,327.633 30.254 C 327.712 30.347,328.035 30.797,328.352 31.254 C 328.668 31.710,330.050 33.583,331.422 35.416 C 332.794 37.248,334.029 38.912,334.167 39.112 C 334.685 39.867,338.412 44.924,338.577 45.097 C 338.672 45.197,338.900 45.490,339.083 45.748 C 339.267 46.006,339.867 46.739,340.417 47.377 C 340.967 48.014,341.567 48.735,341.750 48.978 C 343.314 51.051,348.498 55.233,352.402 57.571 C 355.449 59.397,360.295 61.833,360.879 61.833 C 360.964 61.833,361.269 61.941,361.558 62.073 C 362.241 62.385,364.555 63.167,364.793 63.167 C 365.157 63.167,365.877 63.512,365.759 63.630 C 365.693 63.696,358.164 63.789,349.028 63.836 L 332.417 63.921 350.500 63.942 C 364.209 63.957,368.442 63.916,368.000 63.773 C 367.679 63.669,367.229 63.461,367.000 63.312 C 366.771 63.162,366.216 62.993,365.767 62.936 C 365.318 62.879,364.863 62.760,364.755 62.671 C 364.648 62.582,364.153 62.423,363.655 62.317 C 363.157 62.210,362.602 62.021,362.421 61.895 C 362.240 61.769,361.977 61.667,361.835 61.667 C 361.694 61.667,361.317 61.527,360.998 61.356 C 360.678 61.184,360.178 60.992,359.887 60.928 C 359.595 60.864,359.274 60.712,359.172 60.590 C 359.071 60.468,358.736 60.321,358.427 60.263 C 358.119 60.205,357.779 60.052,357.672 59.923 C 357.565 59.794,357.262 59.641,357.000 59.583 C 356.738 59.526,356.438 59.376,356.333 59.250 C 356.229 59.124,355.924 58.973,355.655 58.914 C 355.386 58.855,355.167 58.746,355.167 58.672 C 355.167 58.597,354.885 58.415,354.542 58.267 C 353.845 57.968,353.712 57.890,352.154 56.878 C 351.552 56.487,350.987 56.167,350.900 56.167 C 350.812 56.167,350.612 56.017,350.455 55.833 C 350.298 55.650,350.057 55.500,349.918 55.500 C 349.780 55.500,349.667 55.432,349.667 55.350 C 349.667 55.267,349.423 55.044,349.125 54.854 C 348.227 54.280,347.960 54.095,347.652 53.833 C 347.490 53.696,347.232 53.479,347.078 53.352 C 345.401 51.965,344.395 51.059,343.399 50.043 C 342.748 49.378,342.131 48.833,342.028 48.833 C 341.925 48.833,341.709 48.627,341.547 48.375 C 341.385 48.123,341.081 47.729,340.870 47.500 C 340.375 46.961,338.751 44.849,336.580 41.917 C 334.745 39.439,333.920 38.328,332.786 36.808 C 332.400 36.289,331.971 35.699,331.833 35.496 C 331.696 35.293,331.227 34.668,330.790 34.105 C 330.354 33.543,329.904 32.952,329.790 32.793 C 329.677 32.633,329.396 32.237,329.167 31.913 C 328.540 31.027,325.541 27.044,324.714 26.000 C 324.315 25.496,323.875 24.933,323.737 24.750 C 323.599 24.567,323.005 23.779,322.418 23.000 C 321.831 22.221,320.766 20.814,320.050 19.873 C 309.967 6.609,311.340 7.494,300.890 7.532 C 297.147 7.545,293.952 7.587,293.792 7.624 M256.332 37.806 C 255.962 37.930,256.168 38.772,256.656 39.133 C 257.156 39.502,258.900 41.114,261.583 43.685 C 262.408 44.475,263.527 45.526,264.069 46.019 C 264.612 46.513,265.711 47.554,266.512 48.333 C 267.314 49.112,268.593 50.313,269.356 51.000 C 270.119 51.688,271.611 53.075,272.673 54.083 C 276.929 58.127,279.975 61.000,281.083 62.015 C 281.725 62.602,282.925 63.729,283.750 64.519 C 284.575 65.309,285.696 66.359,286.241 66.853 C 286.786 67.346,287.986 68.477,288.908 69.366 C 289.829 70.254,290.757 71.118,290.969 71.284 C 291.820 71.952,291.346 72.167,289.016 72.167 C 286.068 72.167,285.801 72.726,287.610 75.102 C 288.907 76.806,293.856 79.371,295.042 78.955 C 295.156 78.914,294.834 78.793,294.326 78.686 C 290.998 77.982,287.917 75.785,286.922 73.405 C 286.585 72.596,286.859 72.501,289.531 72.497 C 292.702 72.494,292.704 72.604,289.488 69.590 C 288.807 68.952,287.610 67.827,286.828 67.090 C 286.046 66.353,284.325 64.737,283.003 63.500 C 281.681 62.262,279.959 60.644,279.175 59.904 C 278.391 59.164,277.152 58.002,276.421 57.321 C 275.690 56.640,274.856 55.858,274.568 55.583 C 274.281 55.308,272.970 54.071,271.657 52.833 C 270.343 51.596,269.151 50.471,269.006 50.333 C 268.862 50.196,268.145 49.526,267.414 48.844 C 266.682 48.163,265.444 47.000,264.662 46.261 C 261.444 43.219,258.410 40.373,257.565 39.607 C 255.918 38.112,255.960 38.101,263.072 38.217 L 268.750 38.310 265.750 38.084 C 262.906 37.870,256.686 37.686,256.332 37.806 M276.333 40.909 C 276.333 41.236,277.095 42.151,277.577 42.405 C 277.855 42.551,278.458 42.880,278.917 43.136 C 279.375 43.391,280.425 43.966,281.250 44.412 C 282.075 44.859,282.975 45.361,283.250 45.528 C 283.525 45.695,283.825 45.832,283.917 45.832 C 284.127 45.832,283.403 45.389,281.726 44.493 C 278.195 42.605,277.137 41.939,276.740 41.355 C 276.516 41.025,276.333 40.825,276.333 40.909 M284.252 46.004 C 284.319 46.112,284.609 46.307,284.895 46.437 C 285.395 46.664,286.356 47.185,288.333 48.301 C 288.837 48.586,289.737 49.075,290.333 49.388 C 290.929 49.702,291.816 50.194,292.304 50.482 C 292.792 50.770,293.429 51.115,293.720 51.249 C 294.012 51.384,294.362 51.566,294.500 51.654 C 295.325 52.185,297.204 53.185,297.264 53.125 C 297.342 53.047,294.433 51.384,292.417 50.355 C 292.050 50.168,291.225 49.715,290.583 49.349 C 289.942 48.982,288.892 48.408,288.250 48.073 C 287.608 47.738,287.008 47.406,286.917 47.336 C 286.469 46.994,284.146 45.832,284.252 46.004 M297.833 53.484 C 298.063 53.672,298.312 53.828,298.388 53.830 C 298.463 53.832,299.050 54.140,299.692 54.515 C 300.334 54.890,300.890 55.165,300.929 55.127 C 300.993 55.063,297.974 53.318,297.587 53.196 C 297.493 53.166,297.604 53.296,297.833 53.484 M301.483 55.440 C 301.912 55.741,303.582 56.675,304.500 57.129 C 304.821 57.287,305.182 57.510,305.304 57.625 C 305.425 57.740,305.604 57.833,305.701 57.833 C 305.799 57.833,305.688 57.683,305.455 57.500 C 305.221 57.317,304.986 57.167,304.931 57.167 C 304.876 57.167,304.039 56.717,303.070 56.167 C 301.347 55.189,300.703 54.894,301.483 55.440 M306.360 58.144 C 306.603 58.340,306.849 58.500,306.906 58.500 C 306.964 58.500,307.543 58.802,308.195 59.171 C 308.846 59.541,309.407 59.815,309.441 59.781 C 309.497 59.725,306.505 58.001,306.095 57.852 C 305.997 57.817,306.116 57.948,306.360 58.144 M309.983 60.107 C 310.415 60.410,312.050 61.328,313.083 61.849 C 313.450 62.034,314.050 62.363,314.417 62.581 C 314.783 62.799,315.308 63.091,315.583 63.231 C 315.858 63.371,316.683 63.823,317.417 64.237 C 318.150 64.651,318.975 65.101,319.250 65.237 C 319.525 65.373,320.350 65.823,321.083 66.237 C 321.817 66.651,322.642 67.101,322.917 67.237 C 323.192 67.373,324.017 67.822,324.750 68.234 C 325.483 68.646,326.608 69.257,327.250 69.593 C 327.892 69.928,328.492 70.260,328.583 70.330 C 328.675 70.401,329.237 70.721,329.833 71.043 C 330.429 71.364,331.442 71.918,332.083 72.272 L 333.250 72.917 366.250 73.003 C 384.400 73.050,399.419 73.152,399.625 73.230 C 399.964 73.359,400.000 73.322,400.000 72.853 C 400.000 72.259,399.963 72.241,399.438 72.585 C 399.098 72.808,395.261 72.832,366.152 72.793 L 333.250 72.750 331.883 71.958 C 331.131 71.523,330.481 71.167,330.439 71.167 C 330.397 71.167,329.847 70.874,329.215 70.516 C 328.122 69.896,327.527 69.570,325.250 68.337 C 324.700 68.039,323.749 67.504,323.138 67.148 C 322.526 66.792,321.982 66.500,321.928 66.500 C 321.875 66.500,321.039 66.050,320.070 65.500 C 319.101 64.950,318.282 64.500,318.250 64.500 C 318.218 64.500,317.390 64.045,316.410 63.489 C 315.431 62.933,314.469 62.408,314.273 62.322 C 314.077 62.237,313.804 62.095,313.667 62.006 C 313.529 61.917,312.605 61.392,311.613 60.839 C 309.835 59.848,309.218 59.571,309.983 60.107 M327.750 64.271 C 326.742 64.398,325.523 64.544,325.042 64.596 C 324.560 64.648,324.167 64.755,324.167 64.833 C 324.167 65.128,326.776 65.155,362.663 65.235 C 395.572 65.309,399.429 65.344,399.598 65.575 C 399.702 65.717,399.835 65.833,399.893 65.833 C 399.992 65.833,400.051 65.044,399.958 64.964 C 399.935 64.944,394.329 64.872,387.500 64.803 C 380.671 64.735,374.633 64.646,374.083 64.606 C 371.766 64.437,370.406 64.281,370.250 64.165 C 370.158 64.097,369.937 64.094,369.759 64.159 C 369.539 64.239,369.861 64.347,370.759 64.494 C 371.731 64.653,371.995 64.746,371.750 64.843 C 371.243 65.046,325.000 65.036,325.000 64.833 C 325.000 64.742,325.319 64.662,325.708 64.657 C 326.098 64.651,327.692 64.510,329.250 64.343 C 331.457 64.106,331.807 64.039,330.833 64.040 C 330.146 64.040,328.758 64.144,327.750 64.271 M399.169 76.032 C 399.171 76.557,399.215 76.683,399.333 76.500 C 399.545 76.173,399.545 75.547,399.333 75.417 C 399.232 75.354,399.168 75.595,399.169 76.032 M399.366 78.759 C 399.176 78.974,395.732 79.004,371.950 78.996 L 344.750 78.988 344.696 79.331 C 344.655 79.594,344.790 79.732,345.280 79.925 C 345.630 80.064,346.116 80.287,346.359 80.422 C 346.602 80.557,346.902 80.669,347.026 80.672 C 347.149 80.675,347.625 80.862,348.083 81.087 C 348.542 81.312,349.002 81.498,349.106 81.498 C 349.210 81.499,349.510 81.612,349.773 81.749 C 350.035 81.886,350.363 81.997,350.500 81.995 C 350.637 81.994,350.423 81.844,350.023 81.663 C 349.624 81.482,349.220 81.333,349.125 81.333 C 349.031 81.333,348.645 81.184,348.268 81.002 C 347.892 80.820,347.021 80.449,346.333 80.179 C 345.646 79.908,345.083 79.588,345.083 79.468 C 345.083 79.213,399.187 79.138,399.708 79.393 C 399.954 79.513,400.000 79.454,400.000 79.018 C 400.000 78.460,399.728 78.349,399.366 78.759 M295.667 79.168 C 295.893 79.313,297.483 79.414,297.319 79.273 C 297.281 79.240,296.837 79.167,296.333 79.111 C 295.721 79.043,295.500 79.062,295.667 79.168 M297.826 79.809 C 297.952 80.247,297.496 81.651,296.838 82.854 C 296.756 83.003,296.446 83.753,296.149 84.521 C 295.851 85.289,295.554 85.992,295.489 86.083 C 295.424 86.175,295.165 86.775,294.914 87.417 C 294.662 88.058,294.311 88.909,294.134 89.308 C 293.956 89.706,293.851 90.073,293.901 90.124 C 293.979 90.201,295.000 88.122,295.000 87.887 C 295.000 87.818,295.663 86.225,296.167 85.083 C 296.248 84.900,296.548 84.188,296.833 83.500 C 297.119 82.813,297.419 82.100,297.501 81.917 C 298.391 79.910,298.488 79.333,297.934 79.333 C 297.745 79.333,297.721 79.441,297.826 79.809 M105.667 81.611 C 103.448 82.219,101.683 82.723,100.833 82.993 C 100.329 83.153,99.504 83.415,99.000 83.576 C 97.117 84.175,94.979 85.162,93.583 86.077 C 92.671 86.675,90.398 88.458,89.583 89.215 C 89.400 89.386,88.731 89.951,88.097 90.471 L 86.944 91.417 85.764 91.414 C 84.738 91.411,84.423 91.330,83.362 90.796 C 82.690 90.458,81.978 90.132,81.779 90.072 C 81.580 90.012,81.192 89.863,80.917 89.740 C 76.227 87.650,68.012 87.035,62.417 88.355 C 54.313 90.266,48.460 93.848,44.339 99.417 C 43.729 100.242,43.113 101.142,42.972 101.417 C 42.830 101.692,42.520 102.292,42.283 102.750 C 41.077 105.080,40.001 108.638,40.000 110.292 L 40.000 110.833 108.917 110.833 C 168.273 110.833,177.833 110.801,177.833 110.597 C 177.833 107.874,182.997 103.386,186.827 102.780 C 188.232 102.558,188.689 102.134,188.892 100.867 C 188.991 100.248,189.732 98.447,190.036 98.086 C 190.114 97.993,190.366 97.654,190.594 97.333 C 194.031 92.513,199.770 91.294,204.471 94.386 C 205.407 95.002,205.981 95.018,206.648 94.446 C 209.607 91.910,215.514 92.188,218.132 94.986 C 219.402 96.344,220.330 98.599,220.336 100.344 C 220.339 101.327,220.362 101.352,222.017 102.155 C 225.006 103.606,226.500 105.996,226.500 109.330 C 226.500 110.927,226.737 111.339,226.927 110.073 C 227.070 109.117,226.725 106.341,226.421 106.003 C 226.295 105.864,226.143 105.552,226.083 105.309 C 226.022 105.067,225.721 104.594,225.414 104.259 C 225.107 103.923,224.831 103.581,224.803 103.499 C 224.702 103.214,222.792 101.833,222.498 101.833 C 222.335 101.833,222.163 101.730,222.114 101.604 C 222.066 101.478,221.768 101.327,221.453 101.268 C 220.846 101.154,220.673 100.621,220.668 98.852 C 220.667 98.541,220.525 97.978,220.352 97.602 C 220.179 97.225,219.951 96.729,219.846 96.500 C 219.740 96.271,219.563 95.933,219.452 95.750 C 219.214 95.357,217.740 93.833,217.598 93.833 C 217.544 93.833,217.350 93.683,217.167 93.500 C 216.983 93.317,216.708 93.167,216.555 93.167 C 216.402 93.167,216.153 93.055,216.002 92.918 C 215.850 92.781,215.336 92.595,214.859 92.505 C 214.382 92.414,213.848 92.264,213.673 92.170 C 213.498 92.077,212.820 92.000,212.167 92.000 C 211.513 92.000,210.835 92.077,210.660 92.170 C 210.485 92.264,209.952 92.414,209.474 92.505 C 208.997 92.595,208.483 92.781,208.332 92.918 C 208.181 93.055,207.942 93.167,207.801 93.167 C 207.660 93.167,207.354 93.317,207.121 93.500 C 206.888 93.683,206.627 93.833,206.541 93.833 C 206.455 93.833,206.249 93.983,206.083 94.167 C 205.683 94.609,205.164 94.440,204.046 93.500 C 203.934 93.406,203.671 93.251,203.463 93.157 C 203.254 93.063,202.896 92.878,202.667 92.745 C 202.438 92.613,202.083 92.504,201.878 92.502 C 201.674 92.501,201.206 92.380,200.838 92.232 C 200.341 92.033,199.836 91.987,198.876 92.050 C 196.642 92.199,195.058 92.809,192.735 94.417 C 191.611 95.194,189.345 97.875,189.336 98.438 C 189.335 98.541,189.223 98.718,189.088 98.830 C 188.953 98.942,188.793 99.307,188.733 99.642 C 188.672 99.976,188.546 100.348,188.451 100.467 C 188.356 100.586,188.233 100.960,188.179 101.296 C 188.086 101.866,188.029 101.917,187.355 102.032 C 186.957 102.100,186.545 102.225,186.441 102.309 C 186.336 102.394,185.854 102.516,185.371 102.581 C 184.887 102.646,184.395 102.795,184.278 102.913 C 184.161 103.030,183.820 103.180,183.521 103.245 C 183.222 103.311,182.938 103.467,182.890 103.593 C 182.842 103.718,182.643 103.871,182.448 103.933 C 181.996 104.077,179.524 106.466,179.331 106.945 C 179.095 107.529,178.571 107.236,177.981 106.190 C 175.728 102.195,171.417 98.260,166.947 96.118 C 166.047 95.686,165.259 95.333,165.197 95.332 C 165.134 95.332,164.885 95.228,164.643 95.102 C 164.401 94.975,163.576 94.669,162.810 94.420 C 162.044 94.172,161.117 93.867,160.750 93.743 C 160.383 93.620,159.783 93.471,159.417 93.414 C 159.050 93.357,158.252 93.204,157.644 93.074 C 152.161 91.903,143.908 92.827,138.272 95.244 C 137.401 95.618,137.386 95.607,136.078 93.642 C 134.703 91.575,131.188 87.968,129.417 86.806 C 127.862 85.786,126.014 84.738,125.500 84.584 C 125.271 84.515,125.000 84.393,124.899 84.312 C 124.715 84.166,123.646 83.773,121.750 83.154 C 120.717 82.817,119.136 82.439,115.837 81.739 C 113.469 81.237,107.317 81.159,105.667 81.611 M351.417 82.333 C 351.783 82.510,352.196 82.656,352.333 82.657 C 352.471 82.658,352.256 82.511,351.857 82.330 C 350.922 81.905,350.537 81.909,351.417 82.333 M352.833 82.778 C 352.971 82.825,353.320 82.969,353.609 83.098 C 353.897 83.228,354.235 83.332,354.359 83.330 C 354.482 83.328,354.256 83.178,353.857 82.996 C 353.457 82.815,353.007 82.673,352.857 82.680 C 352.631 82.691,352.627 82.708,352.833 82.778 M355.667 83.718 C 355.896 83.849,356.381 84.010,356.744 84.076 C 357.108 84.141,357.610 84.301,357.861 84.431 C 358.112 84.561,358.452 84.664,358.617 84.660 C 359.176 84.648,357.544 84.053,355.667 83.585 L 355.250 83.481 355.667 83.718 M311.756 85.048 C 310.843 85.513,310.193 85.925,310.312 85.965 C 310.432 86.005,310.613 85.954,310.715 85.852 C 311.003 85.564,311.168 85.633,311.036 85.986 C 310.762 86.719,308.006 88.674,306.000 89.558 C 303.711 90.567,296.167 91.687,296.167 91.017 C 296.167 90.916,296.335 90.830,296.542 90.826 C 296.999 90.816,299.361 90.025,298.977 90.011 C 298.828 90.005,298.340 90.110,297.894 90.244 C 297.118 90.477,294.571 91.000,294.211 91.000 C 294.116 91.000,293.988 90.831,293.927 90.625 L 293.815 90.250 293.629 90.632 C 293.267 91.376,293.749 91.576,296.050 91.638 C 298.303 91.698,301.574 91.450,301.884 91.196 C 301.994 91.106,302.533 90.979,303.083 90.915 C 303.633 90.851,304.241 90.699,304.434 90.578 C 304.627 90.457,305.077 90.308,305.434 90.247 C 305.791 90.185,306.287 89.993,306.535 89.818 C 306.783 89.643,307.092 89.500,307.221 89.500 C 307.350 89.500,307.646 89.350,307.879 89.167 C 308.112 88.983,308.368 88.833,308.448 88.833 C 308.527 88.833,308.714 88.702,308.863 88.542 C 309.011 88.381,309.666 87.843,310.317 87.346 C 310.967 86.849,311.500 86.380,311.500 86.304 C 311.500 86.229,311.585 86.167,311.689 86.167 C 311.793 86.167,312.048 85.998,312.255 85.792 C 313.632 84.421,313.575 84.450,314.617 84.580 C 315.149 84.646,315.725 84.776,315.898 84.868 C 316.071 84.961,316.783 85.181,317.481 85.357 C 318.179 85.534,319.181 85.787,319.707 85.920 C 320.233 86.053,320.796 86.232,320.957 86.318 C 321.244 86.471,322.334 86.758,324.500 87.252 C 325.096 87.388,325.866 87.611,326.212 87.749 C 326.557 87.887,327.045 87.996,327.295 87.992 C 327.874 87.982,327.172 87.734,324.750 87.093 C 322.886 86.600,321.078 86.099,319.583 85.660 C 313.738 83.944,313.903 83.957,311.756 85.048 M360.250 85.081 C 360.525 85.201,361.125 85.347,361.584 85.403 C 362.355 85.499,362.331 85.482,361.250 85.179 C 359.904 84.802,359.534 84.766,360.250 85.081 M362.917 85.756 C 363.192 85.882,363.604 85.983,363.833 85.981 C 364.127 85.979,364.028 85.908,363.500 85.741 C 362.562 85.446,362.256 85.453,362.917 85.756 M308.942 86.525 C 308.406 86.799,307.997 87.052,308.032 87.088 C 308.124 87.179,309.797 86.361,309.918 86.164 C 310.047 85.955,310.088 85.940,308.942 86.525 M365.083 86.263 C 366.403 86.643,367.201 86.706,366.000 86.336 C 365.404 86.152,364.767 86.006,364.583 86.012 C 364.400 86.018,364.625 86.131,365.083 86.263 M368.363 87.007 C 368.517 87.096,369.004 87.207,369.446 87.252 L 370.250 87.334 369.333 87.090 C 368.258 86.805,367.976 86.781,368.363 87.007 M306.917 87.430 C 306.385 87.707,305.066 88.199,303.833 88.580 C 302.667 88.941,301.727 89.318,301.975 89.326 C 302.178 89.333,303.965 88.753,305.750 88.102 C 306.847 87.702,307.934 87.174,307.667 87.171 C 307.529 87.170,307.192 87.286,306.917 87.430 M370.627 87.451 C 370.834 87.491,371.134 87.490,371.294 87.448 C 371.453 87.406,371.283 87.374,370.917 87.375 C 370.550 87.377,370.420 87.411,370.627 87.451 M371.957 87.671 C 372.162 87.754,372.725 87.861,373.207 87.910 L 374.083 87.999 373.167 87.756 C 372.096 87.473,371.331 87.420,371.957 87.671 M328.083 88.225 C 328.267 88.371,328.567 88.493,328.750 88.497 C 328.933 88.501,329.496 88.620,330.000 88.762 C 330.504 88.905,331.404 89.137,332.000 89.279 C 332.596 89.420,333.233 89.595,333.417 89.667 C 333.600 89.739,334.200 89.889,334.750 90.000 C 335.300 90.111,335.900 90.260,336.083 90.330 C 336.267 90.401,336.829 90.546,337.333 90.653 C 337.837 90.760,338.512 90.916,338.833 91.000 C 339.154 91.084,339.904 91.276,340.500 91.426 C 341.096 91.576,342.146 91.849,342.833 92.032 C 344.086 92.365,345.148 92.606,346.083 92.769 C 346.358 92.817,346.733 92.918,346.917 92.994 C 347.100 93.070,347.700 93.222,348.250 93.333 C 348.800 93.444,349.400 93.592,349.583 93.662 C 350.135 93.872,351.479 94.167,351.886 94.167 C 352.095 94.167,352.338 94.231,352.425 94.310 C 352.512 94.388,353.071 94.543,353.667 94.653 C 354.262 94.763,355.012 94.916,355.333 94.993 C 357.035 95.401,357.543 95.500,357.930 95.500 C 358.164 95.500,358.519 95.590,358.719 95.700 C 358.920 95.810,359.308 95.918,359.583 95.940 C 360.589 96.021,361.595 96.198,362.063 96.376 C 362.568 96.568,362.955 96.625,364.583 96.749 C 365.292 96.803,364.977 96.705,363.500 96.414 C 362.354 96.188,361.079 95.922,360.667 95.822 C 360.254 95.722,359.129 95.497,358.167 95.323 C 355.884 94.908,354.891 94.690,351.083 93.764 C 349.342 93.340,346.755 92.726,345.336 92.398 C 343.917 92.071,342.642 91.748,342.503 91.680 C 342.364 91.612,341.350 91.343,340.250 91.082 C 337.851 90.514,332.366 89.139,330.167 88.555 C 327.759 87.916,327.676 87.903,328.083 88.225 M374.917 88.167 C 375.375 88.236,376.050 88.372,376.417 88.470 C 376.783 88.567,377.608 88.680,378.250 88.720 C 378.892 88.760,379.229 88.762,379.000 88.724 C 378.771 88.687,377.789 88.508,376.818 88.328 C 375.847 88.148,374.835 88.009,374.568 88.021 C 374.263 88.034,374.392 88.088,374.917 88.167 M380.417 89.087 C 380.875 89.205,381.550 89.301,381.917 89.301 C 382.443 89.301,382.337 89.255,381.417 89.081 C 379.940 88.801,379.319 88.805,380.417 89.087 M7.917 89.165 C 7.275 89.229,6.525 89.399,6.250 89.545 C 5.975 89.690,5.237 90.058,4.611 90.363 C 2.888 91.200,2.653 91.341,2.555 91.598 C 2.505 91.727,2.363 91.833,2.238 91.833 C 2.114 91.833,1.931 91.983,1.833 92.167 C 1.735 92.350,1.583 92.500,1.496 92.500 C 1.356 92.500,0.886 92.953,0.208 93.743 C -0.026 94.016,-0.068 94.333,0.131 94.333 C 0.203 94.333,0.671 93.913,1.172 93.400 C 1.952 92.601,4.327 90.833,4.621 90.833 C 4.674 90.833,5.116 90.645,5.602 90.415 C 9.073 88.773,14.666 89.809,17.470 92.613 C 17.730 92.872,18.767 92.909,18.919 92.663 C 19.044 92.460,20.405 91.743,21.648 91.226 C 24.311 90.117,28.603 90.385,31.000 91.810 C 35.045 94.215,37.133 97.126,38.427 102.166 C 38.962 104.252,38.993 107.146,38.501 109.198 C 38.105 110.850,38.106 110.833,38.394 110.833 C 39.271 110.833,39.667 102.422,38.838 101.422 C 38.753 101.320,38.601 100.866,38.499 100.413 C 38.398 99.959,38.215 99.475,38.092 99.336 C 37.970 99.197,37.819 98.840,37.756 98.544 C 37.693 98.247,37.571 97.960,37.485 97.907 C 37.399 97.854,37.217 97.572,37.081 97.280 C 36.945 96.989,36.703 96.555,36.542 96.317 C 36.381 96.078,36.104 95.666,35.925 95.400 C 35.503 94.771,33.147 92.500,32.918 92.500 C 32.820 92.500,32.612 92.350,32.455 92.167 C 32.298 91.983,32.068 91.833,31.944 91.833 C 31.820 91.833,31.583 91.683,31.417 91.500 C 31.251 91.317,31.030 91.167,30.926 91.167 C 30.822 91.167,30.443 91.017,30.083 90.833 C 29.724 90.650,29.254 90.500,29.040 90.500 C 28.825 90.500,28.442 90.392,28.188 90.261 C 27.569 89.941,25.103 89.769,24.167 89.981 C 22.323 90.398,21.089 90.824,20.167 91.361 C 20.029 91.441,19.654 91.626,19.333 91.771 C 19.012 91.917,18.690 92.140,18.617 92.268 C 18.421 92.609,17.872 92.550,17.667 92.167 C 17.569 91.983,17.386 91.833,17.262 91.833 C 17.137 91.833,16.995 91.727,16.945 91.598 C 16.895 91.468,16.668 91.262,16.439 91.139 C 14.696 90.206,13.910 89.833,13.682 89.832 C 13.536 89.832,13.192 89.713,12.917 89.569 C 12.479 89.339,10.023 88.968,9.333 89.027 C 9.196 89.039,8.558 89.101,7.917 89.165 M300.667 89.583 C 300.120 89.896,300.474 89.900,301.189 89.590 C 301.576 89.422,301.647 89.346,301.417 89.346 C 301.233 89.345,300.896 89.452,300.667 89.583 M383.917 89.518 C 384.650 89.595,385.610 89.735,386.050 89.829 C 386.490 89.923,387.277 89.988,387.800 89.973 C 388.429 89.956,388.553 89.925,388.167 89.883 C 387.846 89.849,386.775 89.711,385.786 89.577 C 384.797 89.443,383.672 89.343,383.286 89.356 C 382.833 89.370,383.057 89.427,383.917 89.518 M389.463 90.122 C 389.855 90.157,390.455 90.157,390.796 90.121 C 391.137 90.085,390.817 90.057,390.083 90.057 C 389.350 90.058,389.071 90.087,389.463 90.122 M393.000 90.412 C 393.871 90.542,395.108 90.641,395.750 90.633 L 396.917 90.618 395.750 90.497 C 395.108 90.431,393.871 90.331,393.000 90.276 L 391.417 90.175 393.000 90.412 M399.500 90.500 C 399.363 90.589,398.725 90.669,398.083 90.677 C 396.602 90.697,396.850 90.788,398.625 90.877 C 399.872 90.939,400.000 90.916,400.000 90.639 C 400.000 90.297,399.870 90.261,399.500 90.500 M365.750 96.952 C 365.964 97.159,367.927 97.505,368.769 97.484 C 369.300 97.471,369.206 97.427,368.250 97.243 C 366.246 96.856,365.570 96.777,365.750 96.952 M369.620 97.674 C 369.732 97.793,370.107 97.906,370.454 97.925 C 371.669 97.992,372.923 98.198,373.553 98.434 C 373.902 98.565,374.260 98.629,374.347 98.575 C 374.434 98.521,374.898 98.564,375.378 98.671 C 375.857 98.777,376.512 98.838,376.833 98.806 C 377.274 98.761,377.091 98.699,376.083 98.548 C 375.350 98.439,373.850 98.191,372.750 97.998 C 369.624 97.447,369.383 97.422,369.620 97.674 M377.806 99.048 C 377.928 99.196,378.228 99.313,378.472 99.307 C 378.717 99.302,379.479 99.342,380.167 99.396 L 381.417 99.496 380.250 99.257 C 377.899 98.775,377.557 98.746,377.806 99.048 M381.802 99.764 C 382.085 99.962,382.354 99.996,382.881 99.902 C 383.710 99.755,383.282 99.547,382.088 99.517 C 381.438 99.500,381.433 99.505,381.802 99.764 M383.833 100.000 C 383.971 100.089,384.421 100.154,384.833 100.145 L 385.583 100.128 384.917 99.990 C 383.947 99.790,383.514 99.794,383.833 100.000 M385.959 100.346 C 386.074 100.468,386.524 100.590,386.959 100.617 C 387.394 100.644,388.200 100.701,388.750 100.743 L 389.750 100.820 388.583 100.581 C 386.557 100.165,385.718 100.089,385.959 100.346 M390.417 101.024 C 390.600 101.141,391.012 101.254,391.333 101.274 C 391.654 101.295,392.442 101.350,393.083 101.398 L 394.250 101.484 393.000 101.246 C 390.909 100.848,390.021 100.772,390.417 101.024 M394.942 101.783 C 395.298 101.961,395.619 102.003,395.942 101.915 L 396.417 101.785 396.000 101.659 C 395.771 101.590,395.321 101.531,395.000 101.527 L 394.417 101.521 394.942 101.783 M396.750 102.000 C 396.933 102.079,397.383 102.140,397.750 102.135 C 398.387 102.128,398.395 102.122,397.917 102.000 C 397.175 101.811,396.311 101.811,396.750 102.000 M399.240 102.078 C 398.934 102.309,398.946 102.323,399.458 102.328 C 399.831 102.332,400.000 102.255,400.000 102.083 C 400.000 101.765,399.657 101.763,399.240 102.078 " stroke="none" fill="#3b3b4b" fill-rule="evenodd"></path></g></svg>