<svg id="svg" version="1.1" xmlns="http://www.w3.org/2000/svg" xmlns:xlink="http://www.w3.org/1999/xlink" width="400" height="110.92436974789916" viewBox="0, 0, 400,110.92436974789916"><g id="svgg"><path id="path0" d="M138.394 0.292 C 138.440 0.452,138.565 1.033,138.673 1.583 C 141.131 14.097,155.203 19.506,168.029 12.867 C 170.458 11.609,170.714 11.603,172.243 12.770 C 177.763 16.985,185.725 18.126,192.633 15.693 C 197.345 14.033,200.451 11.333,202.440 7.167 C 203.874 4.160,203.893 4.128,204.344 3.795 C 204.580 3.622,205.255 3.410,205.844 3.324 C 211.376 2.518,212.888 2.139,215.250 0.969 C 215.983 0.606,216.655 0.239,216.742 0.154 C 216.839 0.060,201.678 0.000,177.605 0.000 C 140.261 0.000,138.315 0.014,138.394 0.292 M356.667 0.095 C 356.667 0.592,357.644 3.834,358.075 4.767 C 361.847 12.929,372.565 15.849,381.785 11.225 C 384.488 9.869,384.665 9.869,386.671 11.243 C 388.383 12.415,390.223 13.350,391.742 13.819 C 392.952 14.192,393.700 14.268,397.625 14.416 L 400.000 14.505 400.000 7.252 L 400.000 0.000 378.333 0.000 C 366.417 0.000,356.667 0.043,356.667 0.095 M278.170 42.072 C 278.564 42.458,279.698 43.089,288.083 47.588 C 294.632 51.101,296.049 51.840,296.113 51.776 C 296.223 51.666,292.398 49.465,282.260 43.802 C 278.506 41.705,277.259 41.177,278.170 42.072 M304.875 49.582 C 304.205 49.873,304.172 50.362,304.669 52.637 C 305.141 54.800,304.860 55.494,303.505 55.504 L 302.917 55.509 303.500 56.015 C 304.616 56.984,306.293 57.971,313.667 62.001 C 317.746 64.230,323.633 67.451,326.750 69.160 C 329.867 70.868,332.642 72.375,332.917 72.508 C 333.562 72.820,397.638 72.965,399.125 72.657 L 400.000 72.476 400.000 69.161 C 400.000 65.962,399.988 65.838,399.650 65.658 C 399.218 65.427,396.129 65.362,380.250 65.253 C 371.891 65.195,367.040 65.092,364.750 64.923 C 362.234 64.737,357.942 64.670,347.250 64.652 C 339.458 64.638,333.308 64.570,333.583 64.500 C 333.858 64.430,340.167 64.364,347.602 64.353 C 365.742 64.327,365.974 64.272,359.753 61.497 C 353.197 58.572,348.282 55.403,343.779 51.199 C 342.948 50.424,342.023 49.687,341.723 49.561 C 340.898 49.217,305.670 49.236,304.875 49.582 M348.033 79.162 C 340.569 80.028,364.854 87.017,383.333 89.321 C 388.408 89.954,398.040 90.729,398.917 90.575 C 400.099 90.367,400.000 90.885,400.000 84.932 L 400.000 79.554 399.542 79.318 C 399.037 79.060,350.192 78.912,348.033 79.162 M305.167 88.482 C 304.204 88.829,303.042 89.294,302.583 89.515 L 301.750 89.917 302.437 89.967 C 304.059 90.085,307.667 88.711,307.667 87.974 C 307.667 87.701,306.898 87.857,305.167 88.482 M7.048 90.080 C 5.614 90.482,3.673 91.556,1.955 92.899 C 1.063 93.596,0.259 94.167,0.167 94.167 C 0.058 94.167,0.000 97.046,0.000 102.500 L 0.000 110.833 19.063 110.833 L 38.126 110.833 38.330 109.542 C 40.373 96.625,30.531 87.146,20.219 92.098 C 18.362 92.990,18.007 93.003,16.740 92.226 C 13.668 90.341,12.610 89.980,9.917 89.897 C 8.504 89.854,7.661 89.908,7.048 90.080 M196.750 93.148 C 193.370 94.133,190.567 96.815,189.240 100.333 C 188.437 102.465,188.327 102.559,185.948 103.162 C 182.693 103.986,177.833 108.479,177.833 110.663 C 177.833 110.778,185.697 110.833,202.136 110.833 L 226.438 110.833 226.381 109.792 C 226.178 106.113,224.942 103.977,222.087 102.367 C 220.595 101.526,220.365 101.196,220.001 99.381 C 218.797 93.379,213.221 91.125,207.280 94.238 C 205.801 95.012,205.369 94.994,203.634 94.086 C 201.210 92.818,198.944 92.509,196.750 93.148 " stroke="none" fill="#e3ddd8" fill-rule="evenodd"></path><path id="path1" d="M0.000 46.500 L 0.000 93.001 0.608 92.328 C 0.942 91.958,1.832 91.245,2.585 90.744 C 7.296 87.609,12.071 87.638,17.106 90.831 C 18.095 91.458,18.429 91.458,19.664 90.835 C 28.263 86.494,37.839 92.179,39.753 102.763 C 40.155 104.983,40.398 105.905,40.583 105.911 C 40.675 105.914,41.313 104.790,42.000 103.412 C 49.011 89.364,67.123 83.705,82.973 90.611 C 86.018 91.938,86.611 91.799,89.833 89.001 C 94.109 85.288,96.817 84.003,105.000 81.804 C 107.102 81.239,113.552 81.240,116.167 81.805 C 126.022 83.934,131.439 87.047,135.562 92.951 C 137.083 95.129,137.727 95.494,139.063 94.936 C 152.040 89.514,169.747 93.962,176.816 104.419 C 178.297 106.610,178.305 106.611,180.272 104.823 C 181.903 103.340,183.850 102.269,185.867 101.745 C 187.221 101.393,187.457 101.150,188.159 99.377 C 190.775 92.771,197.935 89.701,203.823 92.662 C 205.473 93.491,205.636 93.491,207.359 92.671 C 213.532 89.731,220.021 92.550,221.262 98.710 C 221.612 100.453,221.690 100.568,223.030 101.351 C 226.320 103.272,228.350 107.265,227.534 110.208 L 227.360 110.833 313.680 110.833 L 400.000 110.833 400.000 106.595 L 400.000 102.357 399.042 102.249 C 398.515 102.189,397.033 101.996,395.750 101.820 C 393.516 101.514,392.480 101.355,386.667 100.427 C 385.246 100.200,383.258 99.896,382.250 99.752 C 381.242 99.608,379.592 99.346,378.583 99.170 C 377.575 98.993,374.875 98.539,372.583 98.159 C 364.202 96.770,356.807 95.345,351.822 94.159 C 348.187 93.295,332.131 89.299,330.000 88.729 C 327.644 88.098,320.426 86.118,317.667 85.345 C 313.999 84.317,314.287 84.244,311.637 86.875 C 309.124 89.370,307.926 90.157,305.376 90.988 C 300.391 92.611,294.601 92.672,293.858 91.108 C 293.591 90.546,293.523 90.743,295.912 85.110 C 298.247 79.603,298.273 79.784,295.018 78.989 C 290.834 77.967,288.117 76.270,287.145 74.073 C 286.607 72.856,287.011 72.424,288.905 72.189 C 291.626 71.851,291.492 71.658,283.083 63.830 C 281.067 61.953,278.515 59.554,277.412 58.500 C 276.309 57.446,273.799 55.083,271.835 53.250 C 269.870 51.417,267.471 49.167,266.503 48.250 C 265.535 47.333,262.964 44.907,260.788 42.858 C 255.211 37.606,255.200 37.633,262.720 37.987 C 265.211 38.104,268.563 38.257,270.167 38.328 C 272.480 38.430,273.307 38.532,274.167 38.821 C 274.762 39.022,275.776 39.246,276.419 39.320 C 277.871 39.487,277.060 39.073,290.714 46.621 C 304.726 54.367,303.591 53.920,303.105 51.508 C 302.956 50.767,302.833 49.608,302.833 48.933 C 302.833 47.991,302.585 46.688,301.760 43.312 C 301.170 40.894,300.041 36.254,299.251 33.000 C 298.462 29.746,297.476 25.696,297.062 24.000 C 293.316 8.677,293.302 8.609,293.838 8.033 C 294.348 7.486,294.413 7.482,301.833 7.534 L 308.750 7.583 309.833 8.120 C 312.269 9.326,312.377 9.451,322.683 23.017 C 325.928 27.289,330.346 33.168,332.500 36.083 C 341.054 47.655,340.596 47.084,342.231 48.204 C 342.770 48.574,343.895 49.526,344.731 50.321 C 349.607 54.960,355.963 58.791,363.000 61.333 C 364.329 61.813,366.017 62.487,366.750 62.831 C 369.018 63.894,370.598 63.998,386.917 64.157 C 393.700 64.222,399.419 64.335,399.625 64.408 L 400.000 64.539 400.000 39.930 L 400.000 15.322 399.625 15.535 C 398.956 15.916,393.882 15.793,392.167 15.354 C 390.482 14.922,387.835 13.682,386.100 12.511 C 384.556 11.470,384.396 11.469,382.378 12.494 C 373.995 16.752,363.454 14.849,358.514 8.185 C 356.832 5.917,355.548 2.529,355.710 0.792 L 355.784 -0.000 286.809 -0.000 C 221.232 -0.000,217.833 0.014,217.827 0.292 C 217.790 1.851,213.125 3.715,207.528 4.406 C 205.417 4.667,204.923 4.899,204.560 5.805 C 201.210 14.156,194.870 18.085,184.750 18.082 C 179.150 18.080,176.715 17.360,172.319 14.407 C 170.365 13.094,170.497 13.094,167.885 14.402 C 157.913 19.396,145.522 16.901,140.195 8.827 C 138.434 6.158,137.164 2.446,137.417 0.708 L 137.520 -0.000 115.242 -0.000 C 94.090 -0.000,92.970 0.015,93.086 0.292 C 94.939 4.729,94.318 11.120,91.658 15.000 C 86.818 22.060,77.992 23.572,68.011 19.053 C 64.982 17.681,64.862 17.684,62.719 19.203 C 52.495 26.447,37.220 21.452,32.032 9.167 C 30.900 6.488,30.821 6.438,27.417 6.265 C 22.501 6.015,17.390 3.913,14.353 0.892 L 13.457 0.000 6.728 0.000 L 0.000 0.000 0.000 46.500 M365.926 75.204 C 365.207 76.230,366.243 77.595,367.058 76.695 C 367.424 76.291,367.408 75.453,367.029 75.109 C 366.611 74.731,366.235 74.763,365.926 75.204 M370.442 75.138 C 369.878 75.762,370.277 77.000,371.043 77.000 C 371.780 77.000,372.127 75.651,371.529 75.109 C 371.132 74.751,370.785 74.760,370.442 75.138 M374.926 75.204 C 374.578 75.701,374.598 76.386,374.971 76.724 C 375.603 77.296,376.333 76.863,376.333 75.917 C 376.333 74.921,375.441 74.469,374.926 75.204 M379.426 75.204 C 379.082 75.695,379.098 76.212,379.472 76.673 C 380.116 77.469,381.182 76.531,380.802 75.504 C 380.523 74.750,379.847 74.603,379.426 75.204 M384.144 75.003 C 383.470 75.396,383.666 76.743,384.425 76.934 C 385.014 77.081,385.400 76.672,385.400 75.900 C 385.400 75.049,384.799 74.620,384.144 75.003 M388.609 75.138 C 388.048 75.758,388.443 77.000,389.201 77.000 C 389.814 77.000,390.176 75.877,389.765 75.249 C 389.443 74.758,388.992 74.715,388.609 75.138 M393.095 75.095 C 392.737 75.454,392.761 76.383,393.138 76.724 C 393.534 77.083,393.882 77.073,394.224 76.695 C 395.035 75.799,393.941 74.249,393.095 75.095 M397.506 75.156 C 397.044 76.018,397.426 77.000,398.223 77.000 C 398.947 77.000,399.167 76.742,399.167 75.889 C 399.167 74.889,397.939 74.347,397.506 75.156 " stroke="none" fill="#131324" fill-rule="evenodd"></path><path id="path2" d="M294.625 8.095 C 293.890 8.494,293.987 9.065,296.671 20.110 C 298.049 25.779,299.520 31.842,299.941 33.583 C 303.926 50.079,303.901 49.997,304.921 49.571 C 305.412 49.366,308.130 49.337,323.496 49.374 C 344.265 49.423,342.012 49.686,340.284 47.417 C 339.726 46.683,338.843 45.521,338.321 44.833 C 337.799 44.146,335.102 40.508,332.327 36.750 C 329.552 32.992,325.854 28.042,324.108 25.750 C 322.363 23.458,319.621 19.858,318.015 17.750 C 310.158 7.433,310.836 7.829,301.033 7.840 C 296.084 7.846,295.006 7.888,294.625 8.095 " stroke="none" fill="#cb330c" fill-rule="evenodd"></path><path id="path3" d="M258.220 38.270 C 256.625 38.636,256.984 39.126,262.917 44.667 C 265.025 46.637,267.500 48.962,268.417 49.834 C 269.879 51.226,277.773 58.636,286.164 66.494 C 292.014 71.971,292.124 72.192,289.161 72.491 C 284.435 72.967,289.004 77.596,295.569 78.982 C 298.365 79.572,298.426 79.937,296.458 84.333 C 293.454 91.044,293.546 91.281,298.635 89.925 C 303.126 88.728,306.535 87.485,310.762 85.500 C 313.875 84.039,313.706 84.041,318.501 85.386 C 320.288 85.887,322.650 86.541,323.750 86.838 C 324.850 87.136,326.616 87.626,327.674 87.926 C 330.017 88.591,349.282 93.387,353.333 94.314 C 356.409 95.017,363.767 96.461,368.667 97.322 C 374.167 98.289,386.875 100.324,394.333 101.432 C 395.296 101.575,396.450 101.761,396.898 101.846 C 397.824 102.021,399.071 102.043,399.625 101.895 L 400.000 101.794 400.000 96.560 L 400.000 91.325 399.625 91.184 C 399.419 91.106,398.762 91.032,398.167 91.020 C 391.715 90.882,379.630 89.411,369.833 87.572 C 359.415 85.616,345.500 81.033,345.500 79.558 C 345.500 78.651,345.037 78.667,373.883 78.584 C 388.072 78.543,399.754 78.466,399.841 78.412 C 400.230 78.172,400.029 73.547,399.625 73.434 C 399.419 73.377,384.438 73.289,366.333 73.238 L 333.417 73.146 332.583 72.768 C 332.125 72.560,330.212 71.542,328.333 70.505 C 326.454 69.469,324.542 68.416,324.083 68.165 C 323.625 67.915,321.637 66.826,319.667 65.745 C 317.696 64.664,314.471 62.903,312.500 61.832 C 309.472 60.186,305.793 58.148,302.500 56.293 C 301.330 55.634,293.243 51.208,285.667 47.081 C 284.612 46.507,283.262 45.766,282.667 45.435 C 282.071 45.104,280.848 44.440,279.948 43.959 C 277.589 42.696,276.835 42.077,276.304 40.969 C 275.629 39.562,274.750 39.037,272.167 38.500 C 271.243 38.308,258.941 38.105,258.220 38.270 M399.228 75.012 C 400.187 75.767,399.456 77.330,398.253 77.094 C 397.629 76.972,397.333 76.593,397.333 75.917 C 397.333 74.806,398.349 74.321,399.228 75.012 M367.029 75.109 C 367.408 75.453,367.424 76.291,367.058 76.695 C 366.243 77.595,365.207 76.230,365.926 75.204 C 366.235 74.763,366.611 74.731,367.029 75.109 M371.529 75.109 C 372.127 75.651,371.780 77.000,371.043 77.000 C 370.277 77.000,369.878 75.762,370.442 75.138 C 370.785 74.760,371.132 74.751,371.529 75.109 M376.071 75.095 C 376.627 75.651,376.253 77.000,375.543 77.000 C 375.120 77.000,374.667 76.488,374.667 76.011 C 374.667 75.063,375.497 74.521,376.071 75.095 M380.450 74.966 C 380.560 75.036,380.718 75.278,380.802 75.504 C 381.182 76.531,380.116 77.469,379.472 76.673 C 378.761 75.795,379.560 74.400,380.450 74.966 M385.085 75.064 C 385.482 75.354,385.510 76.395,385.131 76.774 C 384.755 77.149,384.033 76.942,383.827 76.400 C 383.432 75.362,384.272 74.470,385.085 75.064 M389.765 75.249 C 390.176 75.877,389.814 77.000,389.201 77.000 C 388.443 77.000,388.048 75.758,388.609 75.138 C 388.992 74.715,389.443 74.758,389.765 75.249 M394.195 75.109 C 394.775 75.634,394.415 77.000,393.696 77.000 C 393.248 77.000,392.833 76.472,392.833 75.903 C 392.833 74.969,393.567 74.541,394.195 75.109 " stroke="none" fill="#103d6c" fill-rule="evenodd"></path><path id="path4" d="M13.667 0.139 C 13.667 0.393,15.232 1.759,16.500 2.613 C 19.856 4.871,23.413 6.061,27.417 6.265 C 30.821 6.438,30.900 6.488,32.032 9.167 C 34.505 15.024,39.171 19.260,45.509 21.403 C 52.001 23.598,57.511 22.893,62.719 19.203 C 64.862 17.684,64.982 17.681,68.011 19.053 C 77.992 23.572,86.818 22.060,91.658 15.000 C 94.301 11.145,94.934 4.947,93.142 0.458 L 92.960 0.000 53.313 0.000 C 31.508 0.000,13.667 0.063,13.667 0.139 M137.417 0.708 C 137.164 2.446,138.434 6.158,140.195 8.827 C 145.522 16.901,157.913 19.396,167.885 14.402 C 170.497 13.094,170.365 13.094,172.319 14.407 C 176.715 17.360,179.150 18.080,184.750 18.082 C 194.870 18.085,201.210 14.156,204.560 5.805 C 204.923 4.899,205.417 4.667,207.528 4.406 C 212.157 3.834,216.192 2.484,217.365 1.114 C 218.324 -0.006,217.665 -0.378,216.216 0.464 C 214.082 1.705,211.490 2.529,208.441 2.936 C 204.273 3.494,203.984 3.627,203.328 5.289 C 200.853 11.561,196.046 15.431,189.274 16.603 C 187.229 16.957,181.090 16.851,179.583 16.435 C 177.229 15.786,174.233 14.290,172.243 12.770 C 170.714 11.603,170.458 11.609,168.029 12.867 C 155.203 19.506,141.131 14.097,138.673 1.583 C 138.374 0.059,138.346 -0.000,137.916 0.000 C 137.578 0.000,137.505 0.103,137.417 0.708 M355.768 0.264 C 355.244 1.629,356.641 5.659,358.514 8.185 C 363.454 14.849,373.995 16.752,382.378 12.494 C 384.396 11.469,384.556 11.470,386.100 12.511 C 387.835 13.682,390.482 14.922,392.167 15.354 C 393.882 15.793,398.956 15.916,399.625 15.535 C 400.087 15.272,400.148 14.505,399.708 14.491 C 391.888 14.252,390.593 13.929,386.671 11.243 C 384.665 9.869,384.488 9.869,381.785 11.225 C 371.233 16.517,359.656 12.093,357.072 1.780 C 356.621 -0.019,356.106 -0.618,355.768 0.264 M294.250 7.698 C 293.177 8.325,293.050 7.591,297.062 24.000 C 297.476 25.696,298.462 29.746,299.251 33.000 C 300.041 36.254,301.170 40.894,301.760 43.312 C 302.585 46.688,302.833 47.991,302.833 48.933 C 302.833 49.608,302.956 50.767,303.105 51.508 C 303.591 53.920,304.726 54.367,290.714 46.621 C 277.060 39.073,277.871 39.487,276.419 39.320 C 275.776 39.246,274.762 39.028,274.167 38.835 C 273.571 38.642,272.746 38.452,272.333 38.412 C 271.602 38.341,271.606 38.345,272.500 38.557 C 274.917 39.132,275.644 39.593,276.304 40.969 C 276.835 42.077,277.589 42.696,279.948 43.959 C 280.848 44.440,282.071 45.104,282.667 45.435 C 283.262 45.766,284.612 46.507,285.667 47.081 C 293.243 51.208,301.330 55.634,302.500 56.293 C 305.793 58.148,309.472 60.186,312.500 61.832 C 314.471 62.903,317.696 64.664,319.667 65.745 C 321.637 66.826,323.625 67.915,324.083 68.165 C 324.542 68.416,326.454 69.469,328.333 70.505 C 330.212 71.542,332.125 72.560,332.583 72.768 L 333.417 73.146 366.333 73.238 C 384.438 73.289,399.419 73.377,399.625 73.434 C 399.957 73.527,400.000 73.478,400.000 73.012 C 400.000 72.490,399.993 72.486,399.375 72.617 C 398.131 72.881,333.654 72.779,333.000 72.512 C 332.679 72.381,329.867 70.874,326.750 69.164 C 323.633 67.453,317.746 64.230,313.667 62.001 C 306.293 57.971,304.616 56.984,303.500 56.015 L 302.917 55.509 303.505 55.504 C 304.860 55.494,305.141 54.800,304.669 52.637 C 304.484 51.791,304.333 50.821,304.333 50.482 C 304.333 50.142,304.147 49.501,303.919 49.057 C 303.560 48.358,302.366 43.682,299.438 31.500 C 299.207 30.537,297.926 25.261,296.592 19.775 C 295.258 14.289,294.167 9.473,294.167 9.071 C 294.167 7.837,294.187 7.833,301.067 7.833 C 310.920 7.833,310.084 7.324,318.585 18.500 C 320.503 21.021,323.275 24.660,324.744 26.588 C 326.214 28.515,329.704 33.194,332.500 36.985 C 335.296 40.776,338.399 44.936,339.397 46.230 C 340.394 47.524,341.282 48.787,341.369 49.035 C 341.456 49.283,341.666 49.530,341.835 49.584 C 342.003 49.637,342.859 50.348,343.736 51.162 C 348.358 55.454,353.172 58.561,359.753 61.497 C 365.974 64.272,365.742 64.327,347.602 64.353 C 340.167 64.364,333.858 64.430,333.583 64.500 C 333.308 64.570,339.458 64.638,347.250 64.652 C 357.942 64.670,362.234 64.737,364.750 64.923 C 367.040 65.092,371.891 65.195,380.250 65.253 C 396.129 65.362,399.218 65.427,399.650 65.658 C 399.978 65.833,400.000 65.804,400.000 65.199 C 400.000 64.165,400.017 64.167,389.111 64.167 C 373.494 64.167,369.038 63.906,366.819 62.864 C 366.048 62.502,364.329 61.813,363.000 61.333 C 355.963 58.791,349.607 54.960,344.731 50.321 C 343.895 49.526,342.770 48.574,342.231 48.204 C 340.596 47.084,341.054 47.655,332.500 36.083 C 330.346 33.168,325.928 27.289,322.683 23.017 C 312.377 9.451,312.269 9.326,309.833 8.120 L 308.750 7.583 301.667 7.543 C 296.496 7.514,294.493 7.555,294.250 7.698 M257.292 38.027 C 256.215 38.420,256.512 38.830,260.788 42.858 C 262.964 44.907,265.535 47.333,266.503 48.250 C 267.471 49.167,269.870 51.417,271.835 53.250 C 273.799 55.083,276.309 57.446,277.412 58.500 C 278.515 59.554,281.067 61.953,283.083 63.830 C 291.492 71.658,291.626 71.851,288.905 72.189 C 286.525 72.484,286.297 73.535,288.170 75.567 C 289.270 76.761,292.712 78.688,293.694 78.660 C 293.817 78.657,293.242 78.390,292.418 78.068 C 290.541 77.333,288.769 76.144,287.963 75.078 C 286.668 73.364,286.970 72.712,289.161 72.491 C 292.124 72.192,292.014 71.971,286.164 66.494 C 277.773 58.636,269.879 51.226,268.417 49.834 C 267.500 48.962,265.025 46.637,262.917 44.667 C 255.884 38.098,255.927 38.299,261.547 38.167 L 265.083 38.083 262.417 37.959 C 259.041 37.801,257.867 37.817,257.292 38.027 M282.260 43.802 C 292.398 49.465,296.223 51.666,296.113 51.776 C 296.049 51.840,294.632 51.101,288.083 47.588 C 279.698 43.089,278.564 42.458,278.170 42.072 C 277.259 41.177,278.506 41.705,282.260 43.802 M398.625 74.915 C 399.534 75.310,399.388 76.807,398.417 77.046 C 398.099 77.124,398.099 77.129,398.436 77.147 C 399.037 77.180,399.667 76.551,399.667 75.917 C 399.667 75.288,399.047 74.662,398.436 74.673 C 398.161 74.678,398.203 74.732,398.625 74.915 M399.814 78.406 C 399.758 78.463,388.096 78.543,373.898 78.584 C 345.036 78.667,345.500 78.651,345.500 79.558 C 345.500 80.726,353.357 83.629,362.917 85.995 C 373.395 88.588,389.096 90.826,398.167 91.020 C 398.762 91.032,399.419 91.106,399.625 91.184 C 399.963 91.311,400.000 91.275,400.000 90.818 C 400.000 90.413,399.941 90.329,399.708 90.399 C 398.721 90.697,396.188 90.584,388.833 89.914 C 375.401 88.691,360.139 85.478,350.533 81.852 C 346.126 80.189,345.541 79.455,348.373 79.144 C 350.751 78.882,398.998 79.035,399.473 79.305 C 399.957 79.581,400.038 79.505,399.970 78.833 C 399.941 78.541,399.871 78.348,399.814 78.406 M296.304 79.288 C 298.108 79.819,298.092 80.013,295.824 85.333 C 293.548 90.670,293.591 90.545,293.858 91.108 C 294.601 92.672,300.391 92.611,305.376 90.988 C 307.926 90.157,309.124 89.370,311.637 86.875 C 314.287 84.244,313.999 84.317,317.667 85.345 C 320.426 86.118,327.644 88.098,330.000 88.729 C 332.131 89.299,348.187 93.295,351.822 94.159 C 357.209 95.441,370.710 98.013,370.924 97.798 C 370.962 97.761,369.813 97.523,368.371 97.271 C 363.899 96.489,356.387 95.012,353.333 94.314 C 349.282 93.387,330.017 88.591,327.674 87.926 C 326.616 87.626,324.850 87.136,323.750 86.838 C 322.650 86.541,320.288 85.887,318.501 85.386 C 313.706 84.041,313.875 84.039,310.762 85.500 C 306.535 87.485,303.126 88.728,298.635 89.925 C 293.546 91.281,293.454 91.044,296.458 84.333 C 298.231 80.373,298.249 79.640,296.583 79.184 C 295.551 78.902,295.304 78.994,296.304 79.288 M106.583 81.492 C 105.023 81.747,101.310 82.805,98.250 83.868 C 95.229 84.917,92.903 86.335,89.833 89.001 C 86.611 91.799,86.018 91.938,82.973 90.611 C 67.123 83.705,49.011 89.364,42.000 103.412 C 41.313 104.790,40.676 105.917,40.585 105.917 C 40.401 105.917,40.155 104.984,39.753 102.763 C 37.839 92.179,28.263 86.494,19.664 90.835 C 18.429 91.458,18.095 91.458,17.106 90.831 C 12.071 87.638,7.296 87.609,2.585 90.744 C 0.796 91.934,0.000 92.809,0.000 93.584 C 0.000 94.382,0.106 94.345,1.955 92.899 C 5.011 90.511,7.080 89.741,10.080 89.878 C 12.608 89.993,13.767 90.402,16.740 92.226 C 18.007 93.003,18.362 92.990,20.219 92.098 C 30.248 87.282,40.312 96.537,38.417 108.833 C 38.282 109.704,38.171 110.510,38.170 110.623 C 38.167 110.787,52.584 110.830,107.958 110.830 L 177.750 110.831 178.235 109.633 C 179.280 107.051,183.036 103.899,185.948 103.162 C 188.327 102.559,188.437 102.465,189.240 100.333 C 191.670 93.887,198.002 91.139,203.634 94.086 C 205.369 94.994,205.801 95.012,207.280 94.238 C 213.221 91.125,218.797 93.379,220.001 99.381 C 220.365 101.196,220.595 101.526,222.087 102.367 C 224.862 103.931,226.328 106.381,226.336 109.467 C 226.340 110.918,227.185 111.468,227.540 110.250 C 228.381 107.363,226.304 103.263,223.030 101.351 C 221.690 100.568,221.612 100.453,221.262 98.710 C 220.021 92.550,213.532 89.731,207.359 92.671 C 205.636 93.491,205.473 93.491,203.823 92.662 C 197.935 89.701,190.775 92.771,188.159 99.377 C 187.457 101.150,187.221 101.393,185.867 101.745 C 183.850 102.269,181.903 103.340,180.272 104.823 C 178.305 106.611,178.297 106.610,176.816 104.419 C 169.747 93.962,152.040 89.514,139.063 94.936 C 137.727 95.494,137.083 95.129,135.562 92.951 C 130.615 85.867,121.474 81.572,111.000 81.411 C 109.029 81.380,107.042 81.417,106.583 81.492 M307.667 87.974 C 307.667 88.711,304.059 90.085,302.437 89.967 L 301.750 89.917 302.583 89.515 C 304.675 88.507,307.667 87.600,307.667 87.974 M371.181 97.898 C 371.315 98.023,376.657 98.860,376.952 98.802 C 377.116 98.770,375.975 98.538,374.417 98.286 C 371.653 97.840,371.039 97.766,371.181 97.898 M377.347 98.903 C 377.457 99.012,382.566 99.835,383.014 99.816 C 383.235 99.806,382.217 99.587,380.750 99.328 C 378.196 98.878,377.197 98.753,377.347 98.903 M386.167 100.338 C 387.679 100.611,389.104 100.816,389.333 100.792 C 389.563 100.769,388.700 100.581,387.417 100.375 C 383.850 99.803,383.079 99.779,386.167 100.338 M390.000 100.877 C 390.101 100.986,394.026 101.612,395.417 101.740 C 397.002 101.886,396.284 101.712,393.750 101.335 C 390.369 100.833,389.907 100.776,390.000 100.877 M398.500 102.000 C 397.688 102.082,397.584 102.117,398.083 102.140 C 398.450 102.157,399.031 102.217,399.375 102.274 C 399.884 102.358,400.000 102.326,400.000 102.105 C 400.000 101.956,399.906 101.846,399.792 101.862 C 399.677 101.878,399.096 101.940,398.500 102.000 " stroke="none" fill="#3b3b4b" fill-rule="evenodd"></path></g></svg>